<svg version="1.1" id="Layer_1" xmlns="http://www.w3.org/2000/svg" xmlns:xlink="http://www.w3.org/1999/xlink" x="0px" y="0px"
	 width="100%" viewBox="0 0 892 591" enable-background="new 0 0 892 591" xml:space="preserve">
<path fill="#FFFFFF" opacity="1.000000" stroke="none" 
	d="
M1.000002,403.000000 
	C1.000000,269.099579 1.000000,135.199127 1.000000,1.000000 
	C62.354443,1.000000 123.709373,1.000000 185.400635,1.360653 
	C166.647141,7.145984 149.823166,16.246038 135.740738,30.594826 
	C120.153618,46.476757 116.751427,66.261246 116.075462,87.100655 
	C115.927307,91.667900 116.667175,96.263954 116.766899,100.914352 
	C116.535706,100.981956 116.054375,100.962036 116.025955,100.590996 
	C112.663002,94.130142 109.637566,87.845207 105.938599,81.985443 
	C92.382339,60.510075 72.568367,49.058014 47.455410,47.100834 
	C33.158424,45.986595 18.973398,47.642551 4.661286,51.666733 
	C14.682687,83.052704 29.663122,109.915802 63.860909,120.477280 
	C58.251499,124.915459 52.804989,129.075378 47.307041,133.166183 
	C35.880146,141.668442 27.375410,152.797455 20.650414,165.037766 
	C8.477899,187.193237 3.550111,211.023422 5.881567,236.399048 
	C6.971186,248.258453 9.893441,259.468811 14.699325,270.241791 
	C23.704182,290.427368 37.074837,307.078339 54.802784,320.402557 
	C75.510719,335.966583 98.781807,344.315948 124.458672,345.916656 
	C137.827652,346.750092 150.949142,344.516479 163.582611,340.061676 
	C185.786865,332.232025 204.631683,319.525940 220.079071,301.575348 
	C229.976257,290.074310 238.367203,277.843719 244.124741,263.737518 
	C248.935410,251.951172 251.645935,239.840530 251.877258,226.664093 
	C251.299515,216.869797 251.266418,207.452820 249.859802,198.245682 
	C247.545471,183.096924 241.873154,169.090363 233.659897,156.056290 
	C226.217194,144.245026 216.827652,134.315933 206.068665,125.572006 
	C191.593842,113.808167 175.110107,106.353722 157.060608,102.432106 
	C163.316971,96.793854 169.778046,91.815804 175.345093,85.984276 
	C186.760513,74.026527 190.741943,58.874245 191.936386,42.915630 
	C192.995453,28.765629 191.169022,14.798307 188.000000,1.000000 
	C422.900787,1.000000 657.801575,1.000000 893.000000,1.000000 
	C893.000000,110.021255 893.000000,219.042770 892.664917,328.417328 
	C890.017273,326.454834 888.072754,323.456787 885.313782,321.969177 
	C879.948120,319.076111 870.951294,322.011658 869.116455,326.963776 
	C866.826538,333.144379 867.069031,341.767639 874.737366,344.996735 
	C881.726929,347.939911 889.330017,345.271790 893.000000,338.000000 
	C893.000000,422.543091 893.000000,507.086182 893.000000,592.000000 
	C878.313965,592.000000 863.624817,592.000000 848.666138,591.614014 
	C861.854309,590.570618 875.410217,590.471802 886.860596,585.603577 
	C884.743347,576.779419 881.955505,569.070374 881.215332,561.169617 
	C880.074036,548.985107 880.125793,536.670532 880.046326,524.408752 
	C879.893005,500.752106 880.174377,477.091583 879.875061,453.437714 
	C879.803955,447.819427 878.872925,441.981720 877.104126,436.654449 
	C868.673096,411.262360 846.794128,396.148102 820.587158,396.122864 
	C595.173340,395.906006 369.759155,395.908783 144.345276,396.087891 
	C107.496040,396.117157 70.637001,397.000885 33.805611,398.199738 
	C22.829952,398.556976 11.933011,401.332520 1.000002,403.000000 
M323.002533,342.861877 
	C322.843353,348.786530 327.259064,344.760712 329.724182,346.465485 
	C329.951721,339.136505 334.737244,341.211823 338.743500,341.086365 
	C339.114685,347.097137 342.977203,346.294769 347.354645,345.626923 
	C344.690857,338.939148 342.296722,332.430145 339.466370,326.116730 
	C338.581543,324.143066 336.519867,322.696960 334.996887,321.009338 
	C333.335724,322.787842 331.192047,324.315063 330.109009,326.394623 
	C327.452087,331.496155 325.284027,336.852295 322.988159,341.236084 
	C322.537292,338.264435 322.086426,335.292755 321.442688,331.050171 
	C324.062164,327.724304 321.481842,322.303589 314.965393,321.160126 
	C311.588959,320.567596 307.996368,320.784698 304.566406,321.188080 
	C303.594452,321.302368 302.169128,323.331573 302.118134,324.532074 
	C301.865265,330.487122 301.866364,336.464417 302.115692,342.419739 
	C302.166504,343.634186 303.649017,345.794006 304.502441,345.809418 
	C310.910706,345.925354 317.721405,347.455963 323.002533,342.861877 
M565.000000,269.506531 
	C565.000000,278.265747 565.000000,287.024933 565.000000,295.652039 
	C575.712219,295.652039 585.777100,295.652039 596.415649,295.652039 
	C596.415649,262.031799 596.415649,228.759262 596.415649,195.486740 
	C614.002319,226.640945 619.887512,261.612823 628.731445,296.000000 
	C634.987000,296.000000 641.486206,295.686005 647.936951,296.110046 
	C652.257690,296.394073 653.908997,294.773590 655.059570,290.793488 
	C662.910950,263.634674 670.984436,236.539963 679.018738,209.434189 
	C680.325500,205.025253 681.793335,200.664047 683.186707,196.280777 
	C680.938782,229.482712 679.902771,262.519501 680.908203,295.728455 
	C696.546509,295.728455 711.608398,295.728455 726.998962,295.728455 
	C726.998962,294.661133 726.992432,293.858704 726.999939,293.056396 
	C727.332520,257.474365 727.688232,221.892532 727.986450,186.310226 
	C728.074402,175.814468 727.906372,165.315964 728.063660,154.821838 
	C728.104736,152.080887 727.316284,150.779892 724.615906,149.943497 
	C714.229370,146.726547 703.689575,146.021393 693.088745,148.104034 
	C682.703674,150.144302 673.779846,154.835541 670.241577,165.616516 
	C665.508118,180.038696 661.407776,194.668060 656.984131,209.192810 
	C655.393494,214.415482 653.653992,219.592819 651.584229,226.028976 
	C650.849487,222.469543 650.432129,220.407349 649.997437,218.348801 
	C646.982178,204.068085 643.507935,189.883301 636.409424,177.005981 
	C630.414246,166.130157 622.822571,156.488358 610.608459,152.020584 
	C605.039185,149.983414 599.250061,148.065186 593.408081,147.363846 
	C583.671631,146.194977 573.952454,146.882172 565.440613,151.273987 
	C566.374878,155.962952 567.523254,160.026932 567.915344,164.162613 
	C568.323792,168.470840 568.131958,172.852875 567.977539,177.194626 
	C567.366455,194.378708 566.598816,211.557358 566.022705,228.742493 
	C565.578491,241.994949 565.333557,255.254089 565.000000,269.506531 
M303.009003,181.802933 
	C302.672668,191.897964 302.364075,201.994003 301.991058,212.087677 
	C301.704163,219.851517 301.201721,227.609390 301.030884,235.375107 
	C300.614563,254.300278 300.271423,273.228058 300.142883,292.156433 
	C300.134216,293.432251 302.065277,295.739471 303.256012,295.851807 
	C319.774170,297.410126 336.301849,299.105927 352.868011,299.818237 
	C361.343597,300.182678 370.045990,299.404602 378.382690,297.786713 
	C388.079437,295.904907 397.427155,292.767975 405.089691,285.603851 
	C413.461914,277.776215 417.815979,268.178558 418.848511,257.200531 
	C419.795563,247.131424 418.919067,237.026154 411.486053,229.059586 
	C406.210815,223.405670 400.496216,218.161652 395.247711,213.000198 
	C415.118835,204.372299 415.787994,176.802612 402.080017,164.536758 
	C388.911255,152.753479 372.859558,148.172440 355.926025,147.226624 
	C342.060333,146.452148 328.072662,147.450592 314.161499,148.125687 
	C309.358704,148.358734 304.623474,149.985504 299.506622,151.048492 
	C304.464294,159.647247 305.002777,174.205063 303.009003,181.802933 
M779.228455,147.000000 
	C774.316895,147.338181 769.285828,147.112106 764.516541,148.122101 
	C751.103333,150.962601 745.037598,163.788773 749.493225,175.787567 
	C750.692017,179.015976 752.725037,182.951141 757.806152,181.668274 
	C764.888367,179.880203 773.083313,182.535004 776.815918,188.587158 
	C783.107849,198.788940 788.960754,209.262970 794.894348,219.681686 
	C795.435364,220.631714 795.753784,222.309204 795.282288,223.144699 
	C788.592957,234.997269 782.463013,247.263641 774.675110,258.361359 
	C769.999146,265.024536 765.576111,265.050995 759.297119,261.071259 
	C757.498413,259.931213 754.325684,259.675385 752.296936,260.418030 
	C745.719299,262.825897 741.422302,268.025391 740.171204,274.715057 
	C738.703552,282.562378 740.575623,290.069397 747.647827,294.804749 
	C757.285583,301.257874 768.593811,301.640106 778.558044,294.880432 
	C788.572998,288.086334 795.107422,278.258667 800.965027,267.973785 
	C804.285339,262.143951 807.241394,256.106628 810.178894,250.510590 
	C815.270996,258.988007 819.915405,267.765533 825.541565,275.860718 
	C836.021912,290.940430 848.573120,302.646088 869.215271,299.043060 
	C878.998718,297.335388 888.434814,293.930817 890.253235,283.873749 
	C891.363525,277.732574 889.466919,271.031281 888.706482,264.606934 
	C888.657715,264.195312 886.659180,263.567505 885.734985,263.777344 
	C878.415466,265.439117 872.309692,263.484985 867.411255,257.874268 
	C864.834351,254.922668 862.015076,252.062164 860.044067,248.724228 
	C853.530151,237.692673 847.283936,226.499985 841.143860,215.255066 
	C840.470337,214.021484 840.646606,211.816147 841.279663,210.458282 
	C845.767517,200.832794 852.095154,192.482529 860.075134,185.515137 
	C864.113586,181.989212 868.905823,180.177536 874.584961,181.174881 
	C880.017578,182.128922 885.112183,180.467743 888.268433,176.023529 
	C892.566406,169.971695 893.141968,162.934113 889.955627,156.190475 
	C886.889526,149.701538 880.869263,147.332520 874.050049,147.029510 
	C863.507385,146.561081 854.884583,151.383270 848.112061,158.653198 
	C839.962769,167.400864 832.866699,177.129578 825.439941,186.279190 
	C820.974304,180.101685 816.083252,173.270752 811.123718,166.489929 
	C803.383057,155.906693 793.310486,148.991165 779.228455,147.000000 
M531.071838,207.295044 
	C526.714966,192.713425 522.428406,178.110275 517.968567,163.560211 
	C516.041809,157.274277 511.896149,152.184326 505.827820,150.193939 
	C492.019958,145.665054 477.971222,145.420792 464.047333,150.466888 
	C466.808716,156.888077 466.565216,159.042969 464.401184,165.223404 
	C460.814972,175.465530 457.439362,185.781204 453.946686,196.056244 
	C446.126129,219.063629 438.278534,242.061798 430.461639,265.070435 
	C427.001312,275.255859 423.588837,285.457550 420.134247,295.712372 
	C431.598022,295.712372 442.693695,295.712372 452.911255,295.712372 
	C456.778748,280.856720 460.520996,266.482178 464.291107,252.000732 
	C474.830139,252.000732 484.980225,251.878723 495.119812,252.150345 
	C496.432892,252.185516 498.486572,254.043945 498.849487,255.414658 
	C501.753601,266.382111 504.095459,277.500488 507.086060,288.442413 
	C509.554413,297.473450 507.210541,295.891907 516.476440,295.985168 
	C523.803284,296.058929 531.131531,296.000000 538.459106,296.000000 
	C545.214172,296.000000 551.969177,296.000000 558.112000,296.000000 
	C549.178833,266.459961 540.339417,237.229980 531.071838,207.295044 
M563.881531,345.244141 
	C563.881531,342.348206 563.881531,339.452240 563.881531,336.279083 
	C566.387207,338.474030 568.479248,341.709290 570.361877,341.591736 
	C572.587646,341.452698 574.632629,338.418396 577.208862,336.259705 
	C577.208862,339.689148 577.208862,342.747589 577.208862,345.814636 
	C579.609863,345.814636 581.555298,345.814636 583.999084,345.814636 
	C583.999084,339.023987 584.180969,332.399017 583.869019,325.797394 
	C583.792664,324.183441 582.362549,321.690857 581.076416,321.335999 
	C579.730896,320.964691 577.333862,322.279694 576.239990,323.571716 
	C574.092285,326.108337 572.529419,329.140137 570.515442,332.294556 
	C568.285156,328.884430 566.554260,325.715454 564.278381,323.003937 
	C563.308594,321.848480 561.194641,321.183167 559.610413,321.200226 
	C558.741760,321.209564 557.182983,323.081787 557.150574,324.150909 
	C556.931030,331.392395 557.035950,338.643707 557.035950,345.888458 
	C559.575195,345.888458 561.403320,345.888458 563.881531,345.244141 
M769.913757,323.538605 
	C768.255432,322.716248 766.646423,321.727051 764.897827,321.209656 
	C764.540222,321.103851 763.120667,322.756683 763.103638,323.616943 
	C762.956665,331.032562 763.019165,338.452393 763.019165,346.062775 
	C765.427551,345.947174 767.164307,345.863800 769.176758,345.767212 
	C769.176758,342.347717 769.176758,339.451080 769.176758,336.506073 
	C771.376099,338.455414 773.455261,341.706421 775.322144,341.588776 
	C777.547546,341.448578 779.590942,338.420288 782.154297,336.273834 
	C782.154297,339.662537 782.154297,342.707153 782.154297,345.657471 
	C784.668335,345.657471 786.720398,345.657471 788.999451,345.657471 
	C788.999451,338.850952 789.153748,332.378510 788.893127,325.922852 
	C788.826294,324.267914 787.449585,322.665833 786.674622,321.039459 
	C784.789490,321.997620 782.463867,322.549500 781.119934,324.006775 
	C778.967957,326.340179 777.466858,329.273895 775.548889,332.167786 
	C773.578125,329.345459 771.813171,326.817719 769.913757,323.538605 
M348.001495,343.256439 
	C348.642273,348.773376 352.410767,344.804474 355.217041,346.276367 
	C355.217041,341.822571 355.217041,338.173798 355.217041,334.245972 
	C358.686432,338.120056 361.572144,341.703278 364.850647,344.881256 
	C367.183105,347.142242 370.817993,346.182098 370.901764,343.433533 
	C371.127899,336.013123 370.979187,328.581299 370.979187,321.381042 
	C368.258148,321.381042 366.194916,321.381042 363.789307,321.381042 
	C363.789307,325.300171 363.789307,328.839081 363.789307,332.960724 
	C360.878204,329.424255 358.659332,326.158386 355.841248,323.536621 
	C354.345184,322.144775 351.809601,321.870300 349.743286,321.091431 
	C349.162201,322.833374 348.153595,324.557526 348.080078,326.320618 
	C347.858337,331.639038 348.000061,336.972595 348.001495,343.256439 
M609.000000,334.500427 
	C609.000000,338.261292 609.000000,342.022125 609.000000,345.655640 
	C611.684998,345.655640 613.744385,345.655640 616.099487,345.655640 
	C616.099487,342.073914 616.099487,338.832092 616.099487,334.461517 
	C619.563416,338.375641 622.159729,341.688324 625.192688,344.535950 
	C626.290222,345.566437 628.512024,345.964935 630.067261,345.711060 
	C630.880310,345.578308 631.872803,343.418945 631.905579,342.152130 
	C632.084534,335.227600 631.990723,328.296021 631.990723,321.277527 
	C629.442261,321.277527 627.387512,321.277527 624.820190,321.277527 
	C624.820190,325.206848 624.820190,328.879181 624.820190,333.205139 
	C621.145142,329.191956 618.181824,325.686981 614.889648,322.524261 
	C613.897339,321.571045 611.869812,321.035309 610.551086,321.336243 
	C609.791565,321.509521 609.174744,323.714844 609.068176,325.051270 
	C608.844543,327.857361 609.000122,330.693726 609.000000,334.500427 
M395.005371,331.838135 
	C395.003815,332.670074 394.947662,333.506073 395.009766,334.333252 
	C395.356934,338.957489 399.688812,344.716644 403.651184,345.862000 
	C409.276764,347.488129 415.747894,345.271210 418.839539,340.658722 
	C422.049347,335.869965 421.672028,329.980133 418.070099,325.266113 
	C414.590118,320.711670 409.683777,320.305237 404.817017,321.127960 
	C399.515289,322.024170 396.670502,326.093140 395.005371,331.838135 
M792.000000,336.390991 
	C792.001465,338.220917 791.481140,340.275696 792.146606,341.819366 
	C792.855286,343.463440 794.580566,345.656586 796.046265,345.806366 
	C800.928650,346.305298 805.893738,345.995270 811.058960,345.995270 
	C810.940002,343.622894 810.853210,341.892609 810.752747,339.889496 
	C806.653870,339.889496 803.037354,339.889496 799.420837,339.889496 
	C799.138916,339.447144 798.856934,339.004761 798.575012,338.562408 
	C799.664368,337.708801 800.640198,336.447632 801.871765,336.104645 
	C803.416138,335.674530 805.247681,336.298615 806.808350,335.896912 
	C807.982361,335.594696 808.924927,334.393433 809.970520,333.592377 
	C809.085449,332.448486 808.405884,330.676392 807.268372,330.304413 
	C805.454834,329.711365 803.313171,330.208893 801.358398,329.919830 
	C800.530518,329.797394 799.824646,328.850037 799.063354,328.277557 
	C799.804749,327.853546 800.531311,327.097473 801.290100,327.063629 
	C804.404663,326.924683 807.528931,327.005554 810.742676,327.005554 
	C810.742676,324.771851 810.742676,323.029266 810.742676,321.185394 
	C808.515137,321.035858 806.534119,320.902863 804.528198,320.768219 
	C806.409241,318.746674 808.003723,317.033173 809.662170,315.250824 
	C804.315918,314.096222 800.661377,315.573242 799.511230,320.881836 
	C792.257996,321.154572 792.004333,321.420990 792.000244,328.443146 
	C791.998901,330.772125 792.000000,333.101105 792.000000,336.390991 
M663.178040,321.025848 
	C662.439514,321.352417 661.651428,321.598511 660.970154,322.018127 
	C654.876526,325.771545 652.650635,332.506348 655.368530,338.865936 
	C657.801208,344.558075 664.467834,347.549713 671.084473,345.918488 
	C676.833435,344.501160 680.448303,339.043976 679.998291,332.461639 
	C679.440063,324.297211 674.831909,320.992310 663.178040,321.025848 
M722.399597,345.150513 
	C732.245422,342.527802 735.411621,335.476166 731.164062,327.127258 
	C729.004578,322.882629 718.084473,319.983337 712.934692,321.211243 
	C712.062622,321.419189 711.167114,323.460632 711.088806,324.705750 
	C710.848572,328.523254 711.000122,332.365448 711.000061,336.198029 
	C710.999878,346.682770 711.000000,346.682770 722.399597,345.150513 
M452.000763,342.164246 
	C453.084076,343.441132 454.208374,345.833710 455.243378,345.795715 
	C459.080292,345.654785 463.091644,345.265808 466.661377,343.949799 
	C472.951508,341.630890 475.119324,336.164154 473.024048,329.815430 
	C471.067017,323.885742 465.079773,320.852081 456.326599,320.933533 
	C453.113892,320.963440 451.833832,321.968292 451.950012,325.257843 
	C452.137726,330.572693 452.000153,335.899048 452.000763,342.164246 
M475.000000,332.534973 
	C475.000824,335.525970 474.584259,338.600891 475.162445,341.475769 
	C475.497833,343.143585 477.314972,345.637604 478.668060,345.775879 
	C483.696198,346.289581 488.808380,345.980713 493.788300,345.980713 
	C493.788300,343.668823 493.788300,342.057709 493.788300,339.994598 
	C489.844086,339.994598 486.097443,339.994598 482.350769,339.994598 
	C482.084839,339.489166 481.818878,338.983704 481.552917,338.478271 
	C482.674805,337.652679 483.690521,336.477661 484.947205,336.095825 
	C486.316620,335.679688 488.006348,336.319824 489.377258,335.905975 
	C490.696167,335.507874 491.786041,334.351227 492.976593,333.527893 
	C491.910370,332.363434 491.043427,330.657074 489.726990,330.172882 
	C488.112793,329.579163 486.109680,330.129730 484.301117,329.937317 
	C483.521881,329.854370 482.808990,329.147980 482.065979,328.724854 
	C482.821472,328.151611 483.549377,327.132568 484.337280,327.083801 
	C487.438507,326.891907 490.558594,327.005157 493.710327,327.005157 
	C493.710327,324.755188 493.710327,323.033234 493.710327,321.000000 
	C490.795074,321.000000 488.161774,321.039764 485.529999,320.993073 
	C474.647888,320.799927 474.792145,320.671997 475.000000,332.534973 
M752.867249,340.693512 
	C748.996460,340.323578 745.125671,339.953613 741.254883,339.583679 
	C740.990906,339.223236 740.726868,338.862793 740.462830,338.502380 
	C741.486389,337.669434 742.397583,336.419830 743.561157,336.106079 
	C745.110168,335.688477 746.994934,336.397675 748.475769,335.879974 
	C749.825928,335.407959 750.829590,333.945007 751.985962,332.918823 
	C750.775513,331.946442 749.699219,330.563507 748.318481,330.112457 
	C746.816895,329.621948 745.003113,330.179932 743.383484,329.919861 
	C742.544495,329.785126 741.830872,328.869904 741.060608,328.307281 
	C741.792358,327.873505 742.508606,327.099426 743.258484,327.065308 
	C746.369751,326.923920 749.491150,327.005951 752.742188,327.005951 
	C752.742188,324.816071 752.742188,323.094482 752.742188,321.000122 
	C748.208252,321.000122 743.904053,321.226624 739.635376,320.934113 
	C735.649841,320.660980 734.205078,322.839020 734.061218,326.131805 
	C733.843933,331.105591 733.629395,336.140106 734.205872,341.055939 
	C734.415039,342.840149 736.735840,345.546539 738.375427,345.771088 
	C743.060852,346.412842 747.891235,345.996796 752.982117,345.996796 
	C752.982117,344.212555 752.982117,342.915497 752.867249,340.693512 
M587.000000,330.611420 
	C587.000977,334.271820 586.567261,338.009003 587.194336,341.558807 
	C587.488464,343.224182 589.698792,345.608521 591.263000,345.794098 
	C595.983215,346.354248 600.812439,345.996307 605.742188,345.996307 
	C605.742188,343.819275 605.742188,342.095215 605.742188,339.917969 
	C601.743347,339.917969 597.991150,339.917969 594.238892,339.917969 
	C593.977905,339.437531 593.716919,338.957123 593.455933,338.476685 
	C594.491028,337.652161 595.413757,336.456970 596.590698,336.099915 
	C597.962280,335.683838 599.662537,336.337341 601.024475,335.907166 
	C602.458252,335.454346 603.661011,334.269745 604.964722,333.404877 
	C603.731567,332.274078 602.670837,330.653656 601.219482,330.142670 
	C599.588562,329.568542 597.595215,330.100555 595.780518,329.929047 
	C595.174561,329.871765 594.633362,329.129517 594.062622,328.700348 
	C594.662170,328.136719 595.238953,327.117188 595.865112,327.085876 
	C599.139160,326.922302 602.425659,327.009460 605.691895,327.009460 
	C605.691895,324.734772 605.691895,323.011292 605.691895,321.000000 
	C602.085205,321.000000 598.780457,320.999878 595.475647,321.000031 
	C587.001709,321.000397 587.001709,321.000427 587.000000,330.611420 
M692.523621,321.000000 
	C685.378967,321.001312 681.368286,322.833405 681.161438,327.038239 
	C680.890747,332.540131 684.737854,334.954834 689.587463,336.315491 
	C691.223145,336.774506 692.631531,338.043671 694.143799,338.942566 
	C693.976440,339.347290 693.809082,339.751984 693.641663,340.156708 
	C689.490601,339.791016 685.339600,339.425354 681.236938,339.063934 
	C680.960083,341.029816 680.742676,342.573608 680.377991,345.163361 
	C685.327454,345.443756 690.019653,346.103546 694.647522,345.795868 
	C696.775269,345.654419 699.391296,344.083466 700.713196,342.345062 
	C703.876526,338.184998 701.537659,333.626678 695.498535,331.190247 
	C693.268005,330.290375 691.064331,329.323792 688.848389,328.387634 
	C688.999329,327.867554 689.150208,327.347473 689.301086,326.827423 
	C691.967224,327.123810 694.632324,327.614014 697.300049,327.628876 
	C698.503479,327.635620 700.741211,326.666809 700.727905,326.190033 
	C700.686096,324.681793 700.212708,322.480835 699.148743,321.872437 
	C697.588562,320.980286 695.372986,321.234344 692.523621,321.000000 
M434.683197,339.705109 
	C430.510742,339.705109 426.338257,339.705109 422.117096,339.705109 
	C420.901093,344.281311 421.319122,345.162811 426.065552,345.894531 
	C428.501953,346.270203 431.040955,346.032318 433.532196,345.990051 
	C438.463013,345.906372 442.703979,343.112640 442.830719,339.269623 
	C442.974487,334.910065 439.687958,332.721039 436.161072,331.068054 
	C434.105194,330.104431 431.964172,329.322418 429.861450,328.458710 
	C429.987762,327.962189 430.114075,327.465668 430.240387,326.969116 
	C433.519501,327.159271 436.798615,327.349396 440.854248,327.584564 
	C441.127991,326.297028 442.247528,324.186646 441.653412,322.822693 
	C441.182281,321.740997 438.646973,321.266388 436.964935,321.073273 
	C434.504852,320.790863 431.973511,320.831360 429.499390,321.045166 
	C426.394073,321.313507 423.268066,321.903778 422.223114,325.534760 
	C421.244385,328.935486 422.267700,331.821625 425.245605,333.667297 
	C428.352203,335.592834 431.671936,337.174561 434.683197,339.705109 
M830.496033,321.000000 
	C827.926392,322.617279 825.356750,324.234558 822.495728,326.035278 
	C821.739929,324.876617 820.520142,323.006653 819.448914,321.364319 
	C816.900146,321.364319 814.527954,321.364319 811.393372,321.364319 
	C813.403503,324.372009 815.042847,326.740509 816.592529,329.166260 
	C818.307129,331.850250 819.301697,334.289276 816.488647,337.255219 
	C814.386841,339.471161 813.199158,342.554108 811.602966,345.253418 
	C817.857178,347.832855 820.693298,344.174805 823.393860,339.618683 
	C825.670898,345.566711 829.338867,347.498810 835.081848,345.246155 
	C832.820007,341.734039 830.564758,338.404236 828.534729,334.942383 
	C828.102539,334.205322 828.139709,332.798279 828.559082,332.024109 
	C830.513123,328.417450 832.677002,324.924469 834.996887,321.000000 
	C833.285950,321.000000 832.291443,321.000000 830.496033,321.000000 
M515.195312,341.009033 
	C515.756165,341.248932 516.776550,341.437592 516.809814,341.736298 
	C517.443665,347.422760 521.321045,346.042328 525.495605,345.648895 
	C522.366028,338.147430 519.475525,330.960999 516.316895,323.894379 
	C515.770691,322.672333 513.930664,321.053650 512.967468,321.221375 
	C511.524261,321.472748 509.764709,322.881409 509.125488,324.256226 
	C506.460968,329.986908 504.124268,335.872559 501.767578,341.741638 
	C501.277771,342.961395 501.215210,344.352783 500.918762,345.852234 
	C503.566528,345.852234 505.529236,345.852234 507.934509,345.852234 
	C507.455627,340.772369 510.822205,340.785339 515.195312,341.009033 
M381.003967,331.425415 
	C382.913391,327.263702 386.185669,326.737488 390.297119,327.536926 
	C391.363068,327.744171 393.845154,326.177094 393.771332,325.773315 
	C393.469086,324.119904 392.791107,321.743530 391.578094,321.232880 
	C389.735748,320.457336 387.331940,320.947388 385.169922,321.011963 
	C378.019257,321.225494 372.629242,327.007507 373.020447,334.162994 
	C373.372833,340.608093 378.097443,347.120422 390.001831,346.087677 
	C392.998718,345.827698 394.325684,344.927887 393.994720,341.931122 
	C393.656891,338.872650 392.275696,338.850067 389.527802,339.642334 
	C384.174591,341.185852 380.504059,337.741913 381.003967,331.425415 
M859.740417,339.993378 
	C858.998535,339.695679 858.276978,339.324158 857.511169,339.113281 
	C854.452148,338.270844 852.234863,336.207916 853.197754,333.186676 
	C853.904480,330.969147 856.062561,328.647949 858.179932,327.613617 
	C860.099915,326.675751 862.839294,327.415314 865.427734,327.415314 
	C868.014404,321.191315 867.902893,321.010101 860.964050,321.000397 
	C859.470032,320.998322 857.951538,320.827484 856.486511,321.033844 
	C851.830933,321.689514 848.092224,323.972412 846.276062,328.373047 
	C844.457581,332.779144 846.696899,340.935455 849.968689,343.453033 
	C854.177734,346.691803 862.353271,346.988586 867.091248,343.952881 
	C866.571533,342.350403 866.035217,340.696686 865.458984,338.919952 
	C863.693420,339.308716 862.128174,339.653381 859.740417,339.993378 
M640.000000,340.387207 
	C640.000000,342.158020 640.000000,343.928864 640.000000,345.682190 
	C642.961853,345.682190 645.349670,345.682190 648.183838,345.682190 
	C648.183838,339.306824 648.183838,333.239014 648.183838,327.229034 
	C650.725525,327.029968 652.805237,326.867096 654.799316,326.710938 
	C654.799316,324.683014 654.799316,323.071045 654.799316,321.231171 
	C647.542358,321.231171 640.483154,321.231171 633.246948,321.231171 
	C633.246948,323.169128 633.246948,324.894073 633.246948,327.085510 
	C635.546021,327.085510 637.606934,327.085510 640.000000,327.085510 
	C640.000000,331.503601 640.000000,335.462128 640.000000,340.387207 
M533.000000,334.393555 
	C533.000000,329.974121 533.000000,325.554718 533.000000,321.198517 
	C530.368286,321.198517 528.422913,321.198517 526.004944,321.198517 
	C526.004944,328.486694 525.853149,335.591095 526.158447,342.675842 
	C526.207764,343.819092 528.230835,345.735474 529.445007,345.820679 
	C534.517700,346.176727 539.629822,345.970734 544.680359,345.970734 
	C544.680359,343.711365 544.680359,341.987946 544.680359,339.967224 
	C540.763550,339.967224 537.159363,339.967224 533.249695,339.967224 
	C533.156189,338.243134 533.078064,336.802338 533.000000,334.393555 
M844.000000,331.519592 
	C844.000000,328.098083 844.000000,324.676575 844.000000,321.321747 
	C841.360168,321.321747 839.311951,321.321747 837.293396,321.321747 
	C837.293396,329.676361 837.293396,337.706268 837.293396,345.677795 
	C839.640686,345.677795 841.688843,345.677795 844.000000,345.677795 
	C844.000000,341.075897 844.000000,336.793152 844.000000,331.519592 
M547.631592,345.981842 
	C549.362183,345.981842 551.092834,345.981842 552.657288,345.981842 
	C552.657288,337.217041 552.657288,329.178772 552.657288,321.193237 
	C550.370911,321.193237 548.428772,321.193237 546.705566,321.193237 
	C546.705566,329.549133 546.705566,337.708557 547.631592,345.981842 
z"/>
<path fill="#F39201" opacity="1.000000" stroke="none" 
	d="
M1.000002,403.375000 
	C11.933011,401.332520 22.829952,398.556976 33.805611,398.199738 
	C70.637001,397.000885 107.496040,396.117157 144.345276,396.087891 
	C369.759155,395.908783 595.173340,395.906006 820.587158,396.122864 
	C846.794128,396.148102 868.673096,411.262360 877.104126,436.654449 
	C878.872925,441.981720 879.803955,447.819427 879.875061,453.437714 
	C880.174377,477.091583 879.893005,500.752106 880.046326,524.408752 
	C880.125793,536.670532 880.074036,548.985107 881.215332,561.169617 
	C881.955505,569.070374 884.743347,576.779419 886.860596,585.603577 
	C875.410217,590.471802 861.854309,590.570618 848.198364,591.614014 
	C584.645752,592.000000 321.291534,592.000000 57.306732,591.637573 
	C55.069786,590.989624 53.412151,590.870483 51.864674,590.393738 
	C23.581161,581.679199 8.408271,559.596863 8.031972,531.199219 
	C7.558470,495.466095 7.500466,459.726593 6.839166,423.997681 
	C6.723059,417.724640 5.853973,411.046722 1.000000,406.000000 
	C1.000000,405.250000 1.000000,404.500000 1.000002,403.375000 
M801.996582,493.396515 
	C801.996582,496.164154 801.996582,498.931824 801.996582,501.699463 
	C801.573059,501.710083 801.149597,501.720734 800.726074,501.731354 
	C800.153687,500.026001 799.749634,498.240479 798.981506,496.628357 
	C794.066162,486.312408 789.624512,475.715424 783.932190,465.842072 
	C779.102295,457.464539 771.503662,451.505920 762.063843,448.553772 
	C753.644470,445.920776 745.212524,445.796448 737.520874,448.835510 
	C738.113953,453.858246 739.127319,458.111572 739.026978,462.338440 
	C738.584961,480.959076 737.730957,499.569580 737.215454,518.188965 
	C736.977905,526.769653 737.174988,535.362305 737.174988,543.854919 
	C744.070007,543.854919 750.475220,543.854919 757.253540,543.854919 
	C757.253540,521.480591 757.253540,499.455078 757.253540,476.423157 
	C763.685181,482.336639 767.985779,488.789642 771.106995,495.846313 
	C777.618408,510.568176 783.615479,525.517029 789.930908,540.326965 
	C790.549866,541.778320 791.869873,543.979126 792.938354,544.022766 
	C800.706970,544.340149 808.494507,544.193359 816.442749,544.193359 
	C816.644287,542.894836 816.827026,542.108032 816.880981,541.312500 
	C818.141296,522.733032 819.554321,504.161713 820.567871,485.568634 
	C821.092590,475.942688 821.002808,466.277740 820.992065,456.630676 
	C820.987488,452.561340 819.540039,448.718353 815.262085,447.614960 
	C808.940979,445.984589 802.586243,446.229614 796.922485,449.187500 
	C798.100159,453.131805 799.756714,456.556488 800.061646,460.097565 
	C800.987244,470.848755 801.390137,481.644928 801.996582,493.396515 
M212.640320,453.414795 
	C209.677505,451.597351 206.783371,448.352051 203.740158,448.205627 
	C189.317551,447.511719 174.853668,447.534302 160.405838,447.599945 
	C156.535004,447.617523 152.668961,448.685394 149.307648,449.194336 
	C149.845520,454.581757 150.844940,459.345306 150.700851,464.073975 
	C150.133682,482.687378 149.108963,501.286377 148.459717,519.897888 
	C148.183472,527.817078 148.413574,535.753906 148.413574,543.927673 
	C167.608856,543.927673 186.381882,544.115784 205.146210,543.794739 
	C209.809433,543.714966 213.578918,540.921448 215.162857,536.032288 
	C216.817795,530.923950 215.605896,526.561951 211.966400,522.723938 
	C209.895920,520.540527 207.838120,520.077148 204.558563,520.337402 
	C195.914886,521.023010 187.180817,520.569275 178.104111,520.569275 
	C178.416306,514.517029 178.721237,508.605682 179.047073,502.288879 
	C185.010315,502.288879 190.660385,501.862366 196.215973,502.404388 
	C202.214737,502.989655 204.585129,501.813904 206.221176,495.772308 
	C207.836548,489.807129 206.123138,485.813934 200.867157,484.200806 
	C198.369522,483.434296 195.663498,483.149811 193.036179,483.046509 
	C188.462311,482.866669 183.876282,482.996460 179.218933,482.996460 
	C179.218933,478.664062 179.096176,474.690308 179.296707,470.732910 
	C179.353912,469.603973 180.357483,467.561523 180.913727,467.566132 
	C187.494064,467.620270 194.351318,466.959686 200.545273,468.650330 
	C204.246216,469.660492 206.443207,469.422363 208.905960,467.343018 
	C213.022079,463.867737 213.863358,459.282227 212.640320,453.414795 
M249.001389,519.532166 
	C249.001389,516.248291 249.001389,512.964417 249.001389,511.118103 
	C258.701447,508.315247 267.977142,506.753052 276.248535,502.985809 
	C289.010620,497.173279 293.804901,485.768402 292.940643,472.197205 
	C292.158447,459.915070 283.539276,454.227478 273.077026,450.527924 
	C271.356781,449.919617 269.594910,449.414551 267.828064,448.954895 
	C254.705414,445.541473 241.416946,446.649445 228.155472,447.663574 
	C225.131805,447.894806 222.161240,448.820496 219.645035,449.329681 
	C220.295181,453.881897 221.359512,457.621979 221.268051,461.333557 
	C220.862747,477.781311 219.974380,494.217072 219.561462,510.664734 
	C219.283707,521.728333 219.508560,532.804565 219.508560,543.819214 
	C229.381363,543.819214 239.086487,543.819214 248.993057,543.819214 
	C248.993057,535.798401 248.993057,528.161499 249.001389,519.532166 
M372.901459,535.556091 
	C365.271362,510.265472 357.627167,484.979095 350.023895,459.680389 
	C348.630096,455.042664 346.533173,450.843811 341.773102,449.056610 
	C332.934235,445.737976 323.959991,446.016663 315.491180,448.348358 
	C314.990814,452.358612 315.110474,455.944611 314.052734,459.141052 
	C307.058533,480.276672 299.807648,501.327332 292.648956,522.408569 
	C290.257935,529.449707 287.892151,536.499390 285.417023,543.834961 
	C292.966461,543.834961 299.857819,543.834961 306.433197,543.834961 
	C308.687592,535.382324 310.749573,527.329346 313.050690,519.345154 
	C313.427704,518.037109 314.818329,516.081604 315.807678,516.040527 
	C322.744171,515.752075 329.698303,515.887695 336.585419,515.887695 
	C338.789520,524.685730 340.738800,532.930359 343.019440,541.082336 
	C343.371429,542.340454 345.222809,544.035645 346.417725,544.065918 
	C356.052216,544.309265 365.695557,544.202271 375.718781,544.202271 
	C374.742706,541.299438 373.907440,538.815369 372.901459,535.556091 
M660.910400,486.386536 
	C654.436279,505.451660 647.962219,524.516785 641.375793,543.912598 
	C649.129211,543.912598 655.890930,543.912598 662.419922,543.912598 
	C664.680847,535.401855 666.767090,527.195923 669.119568,519.067078 
	C669.480042,517.821594 671.032593,516.061707 672.094360,516.018250 
	C678.875000,515.740662 685.672607,515.876831 692.549988,515.876831 
	C694.744934,524.517273 696.745789,532.731628 698.991211,540.878479 
	C699.339294,542.141479 700.785339,544.025879 701.761169,544.049072 
	C711.645508,544.284607 721.537659,544.192749 731.726990,544.192749 
	C730.335205,539.905273 729.094543,536.303589 727.994690,532.659363 
	C720.650269,508.324432 713.325195,483.983551 706.020569,459.636597 
	C704.574829,454.817993 702.320374,450.570984 697.286011,448.830902 
	C688.557129,445.813721 679.754456,446.037689 671.237488,448.419159 
	C671.331421,462.136414 664.481995,473.414581 660.910400,486.386536 
M117.005653,498.516602 
	C117.383507,488.621368 117.761353,478.726135 118.170975,467.999054 
	C124.781319,468.753113 130.675293,469.604736 136.599396,469.977417 
	C138.113831,470.072693 140.415634,469.083252 141.177887,467.858887 
	C146.327423,459.587189 141.153091,449.660156 131.111725,449.136292 
	C121.989861,448.660431 112.814941,449.311981 103.666054,449.215607 
	C92.748581,449.100616 81.834579,448.658875 70.917091,448.538757 
	C69.745148,448.525848 68.163216,449.417389 67.444946,450.387817 
	C62.526329,457.033417 66.291443,467.039978 74.673996,468.828430 
	C79.124794,469.777954 83.845703,469.461426 88.737549,469.732635 
	C87.853813,494.244141 86.960190,519.029968 86.066978,543.804443 
	C97.141594,543.804443 106.853241,543.804443 117.004082,543.804443 
	C117.004082,528.771423 117.004082,514.141785 117.005653,498.516602 
M558.376038,469.628510 
	C562.591736,471.949066 564.440125,469.415649 565.686768,465.955536 
	C568.798645,457.318237 563.866028,449.545624 554.416809,449.122864 
	C545.285645,448.714325 536.113342,449.336121 526.962402,449.228912 
	C516.046692,449.101074 505.135162,448.614258 494.219452,448.481354 
	C493.076019,448.467438 491.531372,449.523773 490.825348,450.537781 
	C485.474091,458.223328 490.673615,468.169739 500.801086,469.399200 
	C504.490356,469.847076 508.279602,469.471283 512.183594,469.471283 
	C511.314178,494.574249 510.460144,519.232483 509.604614,543.935303 
	C520.496704,543.935303 530.093567,543.935303 539.617554,543.935303 
	C540.183411,518.810425 540.743164,493.953552 541.319824,468.347748 
	C547.399353,468.719574 552.495789,469.031281 558.376038,469.628510 
M413.508667,449.116974 
	C399.794098,449.116974 386.079529,449.116974 371.823212,449.116974 
	C365.211914,457.452423 369.157349,467.810730 380.483948,469.296143 
	C384.184967,469.781494 388.003296,469.372406 392.070435,469.372406 
	C391.204407,494.364227 390.349213,519.043213 389.488556,543.879761 
	C400.243713,543.879761 409.952820,543.879761 420.000641,543.879761 
	C420.000641,542.583679 419.985626,541.612244 420.002838,540.641418 
	C420.401031,518.175293 420.891937,495.710114 421.118774,473.242279 
	C421.157990,469.355133 422.592346,468.220276 426.132629,468.623718 
	C430.570374,469.129456 435.145020,469.026062 439.426819,470.109406 
	C442.518280,470.891571 443.692566,469.783447 444.853638,467.534302 
	C449.207581,459.100372 444.547333,449.998291 434.964600,449.176575 
	C428.191010,448.595764 421.327942,449.058838 413.508667,449.116974 
M626.182434,544.186340 
	C631.829956,543.738953 636.712341,541.961121 638.706116,536.053223 
	C640.554749,530.575378 638.777771,525.088196 633.888245,521.443726 
	C632.647461,520.518799 630.627014,520.237244 628.993347,520.309204 
	C620.118835,520.700073 611.253357,521.294250 602.073975,521.836853 
	C602.073975,514.325317 601.892578,507.869263 602.111023,501.426788 
	C602.589783,487.307800 603.344666,473.198181 603.824890,459.079224 
	C603.968872,454.847046 603.547791,450.101227 598.984009,448.465668 
	C589.971069,445.235565 580.913879,446.370789 572.649902,449.131836 
	C573.201233,454.171661 574.151367,458.429138 574.044128,462.659790 
	C573.626831,479.110046 572.728882,495.547974 572.297729,511.998047 
	C572.020386,522.578247 572.245667,533.171692 572.245667,544.203552 
	C590.050842,544.203552 607.651062,544.203552 626.182434,544.186340 
M482.793518,453.025146 
	C480.854736,451.145844 479.151306,448.028809 476.935333,447.607452 
	C468.577942,446.018372 460.140472,446.285370 452.235870,449.186798 
	C452.892426,453.119415 454.052551,456.693420 453.988800,460.245483 
	C453.627838,480.356018 452.915710,500.459900 452.448792,520.568970 
	C452.268860,528.318481 452.419464,536.075562 452.419464,543.832886 
	C462.939270,543.832886 472.826721,543.832886 483.203827,543.832886 
	C483.203827,522.530151 483.223358,501.601715 483.194702,480.673340 
	C483.182404,471.717590 483.069702,462.761963 482.793518,453.025146 
M702.643799,426.650208 
	C701.039246,420.887573 697.122620,418.052368 691.831604,419.093140 
	C690.755127,419.304871 689.057800,420.398651 689.012329,421.166687 
	C688.684021,426.706696 685.417358,430.574921 682.265137,434.668274 
	C681.365784,435.836151 681.034851,438.419525 681.733826,439.569061 
	C682.451538,440.749542 684.781372,441.586761 686.347778,441.502106 
	C692.599731,441.164490 701.066833,433.617859 702.643799,426.650208 
z"/>
<path fill="#00953E" opacity="1.000000" stroke="none" 
	d="
M187.666672,1.000000 
	C191.169022,14.798307 192.995453,28.765629 191.936386,42.915630 
	C190.741943,58.874245 186.760513,74.026527 175.345093,85.984276 
	C169.778046,91.815804 163.316971,96.793854 156.672516,102.450867 
	C151.489334,102.127892 146.907410,101.141609 142.296188,100.977272 
	C133.872635,100.677086 125.431747,100.863373 116.998093,100.846741 
	C116.667175,96.263954 115.927307,91.667900 116.075462,87.100655 
	C116.751427,66.261246 120.153618,46.476757 135.740738,30.594826 
	C149.823166,16.246038 166.647141,7.145984 185.868500,1.360653 
	C186.444443,1.000000 186.888901,1.000000 187.666672,1.000000 
z"/>
<path fill="#FFFFFF" opacity="1.000000" stroke="none" 
	d="
M1.000000,406.468658 
	C5.853973,411.046722 6.723059,417.724640 6.839166,423.997681 
	C7.500466,459.726593 7.558470,495.466095 8.031972,531.199219 
	C8.408271,559.596863 23.581161,581.679199 51.864674,590.393738 
	C53.412151,590.870483 55.069786,590.989624 56.838074,591.637573 
	C38.367134,592.000000 19.734272,592.000000 1.000000,592.000000 
	C1.000000,530.312500 1.000000,468.624908 1.000000,406.468658 
z"/>
<path fill="#585757" opacity="1.000000" stroke="none" 
	d="
M893.000000,337.550018 
	C889.330017,345.271790 881.726929,347.939911 874.737366,344.996735 
	C867.069031,341.767639 866.826538,333.144379 869.116455,326.963776 
	C870.951294,322.011658 879.948120,319.076111 885.313782,321.969177 
	C888.072754,323.456787 890.017273,326.454834 892.664917,328.885193 
	C893.000000,331.700012 893.000000,334.400024 893.000000,337.550018 
M877.639893,338.930206 
	C880.523926,340.671906 883.627441,340.106506 884.628601,337.316132 
	C885.518677,334.835388 885.054443,331.386383 883.958008,328.909149 
	C883.510437,327.897980 879.288330,327.393616 877.724243,328.293610 
	C874.863037,329.940094 873.969543,333.077545 875.815125,336.364349 
	C876.208618,337.065063 876.604553,337.764435 877.639893,338.930206 
z"/>
<path fill="#CE132D" opacity="1.000000" stroke="none" 
	d="
M116.766899,100.914352 
	C125.431747,100.863373 133.872635,100.677086 142.296188,100.977272 
	C146.907410,101.141609 151.489334,102.127892 156.472565,102.724747 
	C175.110107,106.353722 191.593842,113.808167 206.068665,125.572006 
	C216.827652,134.315933 226.217194,144.245026 233.659897,156.056290 
	C241.873154,169.090363 247.545471,183.096924 249.859802,198.245682 
	C251.266418,207.452820 251.299515,216.869797 251.640182,226.413940 
	C246.930634,219.769562 239.243164,218.659103 233.242065,224.561203 
	C230.599457,227.160187 228.726822,230.693237 227.012863,234.060883 
	C215.462128,256.756165 199.923035,275.582153 176.241562,286.431427 
	C168.195419,290.117645 159.821671,292.911072 150.706314,291.118134 
	C144.898499,289.975800 143.253265,286.305664 146.496445,281.371399 
	C147.845596,279.318817 149.589966,277.469971 151.391815,275.781616 
	C156.609497,270.892426 162.209442,266.384369 167.164368,261.249115 
	C172.083435,256.151062 172.692825,249.239685 169.476608,244.257889 
	C166.209747,239.197632 160.577423,237.261169 153.547379,239.809372 
	C147.326645,242.064209 141.355331,245.078506 135.436508,248.078354 
	C126.392044,252.662384 117.579285,257.707184 108.500252,262.218445 
	C97.315277,267.776154 85.380043,269.981262 73.089394,267.427399 
	C55.382664,263.748108 45.178207,251.505112 39.030388,235.421356 
	C33.157825,220.057709 31.915094,204.133438 33.835609,187.813477 
	C36.406086,165.970367 43.518974,146.096115 58.052185,129.268417 
	C61.070442,125.773643 64.373802,122.525108 67.736435,119.010178 
	C76.913986,114.632843 85.709007,109.910263 94.951820,106.350296 
	C101.679718,103.758987 108.998840,102.702698 116.054375,100.962036 
	C116.054375,100.962036 116.535706,100.981956 116.766899,100.914352 
M159.598526,174.092346 
	C136.908203,180.197510 114.217888,186.302658 91.560684,192.398895 
	C96.548203,216.542221 123.425850,231.985184 147.881027,225.208740 
	C172.715485,218.327240 188.139099,191.533813 180.002396,168.717270 
	C173.499481,170.448318 166.952133,172.191208 159.598526,174.092346 
M82.662849,157.034271 
	C82.655098,162.823914 85.006165,166.239700 89.492599,166.956940 
	C94.128716,167.698120 98.132332,165.014954 99.209045,160.445114 
	C100.216599,156.168808 97.940399,152.029831 93.759918,150.536652 
	C89.176598,148.899551 85.282150,150.962311 82.662849,157.034271 
M170.222244,144.540970 
	C173.718353,138.308243 171.966721,132.436829 166.085907,130.971008 
	C161.931244,129.935440 158.407471,131.126892 156.307373,134.929550 
	C154.233047,138.685562 154.844391,142.352005 157.981201,145.358643 
	C161.119553,148.366776 165.139496,148.221313 170.222244,144.540970 
z"/>
<path fill="#CE122D" opacity="1.000000" stroke="none" 
	d="
M565.000000,269.008392 
	C565.333557,255.254089 565.578491,241.994949 566.022705,228.742493 
	C566.598816,211.557358 567.366455,194.378708 567.977539,177.194626 
	C568.131958,172.852875 568.323792,168.470840 567.915344,164.162613 
	C567.523254,160.026932 566.374878,155.962952 565.440613,151.273987 
	C573.952454,146.882172 583.671631,146.194977 593.408081,147.363846 
	C599.250061,148.065186 605.039185,149.983414 610.608459,152.020584 
	C622.822571,156.488358 630.414246,166.130157 636.409424,177.005981 
	C643.507935,189.883301 646.982178,204.068085 649.997437,218.348801 
	C650.432129,220.407349 650.849487,222.469543 651.584229,226.028976 
	C653.653992,219.592819 655.393494,214.415482 656.984131,209.192810 
	C661.407776,194.668060 665.508118,180.038696 670.241577,165.616516 
	C673.779846,154.835541 682.703674,150.144302 693.088745,148.104034 
	C703.689575,146.021393 714.229370,146.726547 724.615906,149.943497 
	C727.316284,150.779892 728.104736,152.080887 728.063660,154.821838 
	C727.906372,165.315964 728.074402,175.814468 727.986450,186.310226 
	C727.688232,221.892532 727.332520,257.474365 726.999939,293.056396 
	C726.992432,293.858704 726.998962,294.661133 726.998962,295.728455 
	C711.608398,295.728455 696.546509,295.728455 680.908203,295.728455 
	C679.902771,262.519501 680.938782,229.482712 683.186707,196.280777 
	C681.793335,200.664047 680.325500,205.025253 679.018738,209.434189 
	C670.984436,236.539963 662.910950,263.634674 655.059570,290.793488 
	C653.908997,294.773590 652.257690,296.394073 647.936951,296.110046 
	C641.486206,295.686005 634.987000,296.000000 628.731445,296.000000 
	C619.887512,261.612823 614.002319,226.640945 596.415649,195.486740 
	C596.415649,228.759262 596.415649,262.031799 596.415649,295.652039 
	C585.777100,295.652039 575.712219,295.652039 565.000000,295.652039 
	C565.000000,287.024933 565.000000,278.265747 565.000000,269.008392 
z"/>
<path fill="#F5A701" opacity="1.000000" stroke="none" 
	d="
M67.545761,119.163086 
	C64.373802,122.525108 61.070442,125.773643 58.052185,129.268417 
	C43.518974,146.096115 36.406086,165.970367 33.835609,187.813477 
	C31.915094,204.133438 33.157825,220.057709 39.030388,235.421356 
	C45.178207,251.505112 55.382664,263.748108 73.089394,267.427399 
	C85.380043,269.981262 97.315277,267.776154 108.500252,262.218445 
	C117.579285,257.707184 126.392044,252.662384 135.436508,248.078354 
	C141.355331,245.078506 147.326645,242.064209 153.547379,239.809372 
	C160.577423,237.261169 166.209747,239.197632 169.476608,244.257889 
	C172.692825,249.239685 172.083435,256.151062 167.164368,261.249115 
	C162.209442,266.384369 156.609497,270.892426 151.391815,275.781616 
	C149.589966,277.469971 147.845596,279.318817 146.496445,281.371399 
	C143.253265,286.305664 144.898499,289.975800 150.706314,291.118134 
	C159.821671,292.911072 168.195419,290.117645 176.241562,286.431427 
	C199.923035,275.582153 215.462128,256.756165 227.012863,234.060883 
	C228.726822,230.693237 230.599457,227.160187 233.242065,224.561203 
	C239.243164,218.659103 246.930634,219.769562 251.567825,226.885529 
	C251.645935,239.840530 248.935410,251.951172 244.124741,263.737518 
	C238.367203,277.843719 229.976257,290.074310 220.079071,301.575348 
	C204.631683,319.525940 185.786865,332.232025 163.582611,340.061676 
	C150.949142,344.516479 137.827652,346.750092 124.458672,345.916656 
	C98.781807,344.315948 75.510719,335.966583 54.802784,320.402557 
	C37.074837,307.078339 23.704182,290.427368 14.699325,270.241791 
	C9.893441,259.468811 6.971186,248.258453 5.881567,236.399048 
	C3.550111,211.023422 8.477899,187.193237 20.650414,165.037766 
	C27.375410,152.797455 35.880146,141.668442 47.307041,133.166183 
	C52.804989,129.075378 58.251499,124.915459 64.310677,120.404999 
	C65.781960,119.736481 66.663857,119.449783 67.545761,119.163086 
z"/>
<path fill="#585757" opacity="1.000000" stroke="none" 
	d="
M303.039124,181.329361 
	C305.002777,174.205063 304.464294,159.647247 299.506622,151.048492 
	C304.623474,149.985504 309.358704,148.358734 314.161499,148.125687 
	C328.072662,147.450592 342.060333,146.452148 355.926025,147.226624 
	C372.859558,148.172440 388.911255,152.753479 402.080017,164.536758 
	C415.787994,176.802612 415.118835,204.372299 395.247711,213.000198 
	C400.496216,218.161652 406.210815,223.405670 411.486053,229.059586 
	C418.919067,237.026154 419.795563,247.131424 418.848511,257.200531 
	C417.815979,268.178558 413.461914,277.776215 405.089691,285.603851 
	C397.427155,292.767975 388.079437,295.904907 378.382690,297.786713 
	C370.045990,299.404602 361.343597,300.182678 352.868011,299.818237 
	C336.301849,299.105927 319.774170,297.410126 303.256012,295.851807 
	C302.065277,295.739471 300.134216,293.432251 300.142883,292.156433 
	C300.271423,273.228058 300.614563,254.300278 301.030884,235.375107 
	C301.201721,227.609390 301.704163,219.851517 301.991058,212.087677 
	C302.364075,201.994003 302.672668,191.897964 303.039124,181.329361 
M366.405548,269.069458 
	C372.943665,262.573547 374.868042,252.805939 371.080353,245.341507 
	C366.907745,237.118546 356.011505,231.215454 346.000610,232.703079 
	C346.000610,242.716980 345.878876,252.935303 346.044067,263.148987 
	C346.151581,269.799164 349.640137,273.564972 355.371948,272.871277 
	C358.956360,272.437531 362.390259,270.760254 366.405548,269.069458 
M360.850250,176.359741 
	C357.044037,175.786621 353.237823,175.213501 348.654602,174.523376 
	C348.654602,185.282761 348.654602,195.067902 348.654602,205.636871 
	C353.349609,204.691666 357.888672,204.132034 362.199219,202.821152 
	C367.693176,201.150452 371.168640,194.978424 370.999847,188.316696 
	C370.857361,182.693893 367.611206,178.801346 360.850250,176.359741 
z"/>
<path fill="#CE122D" opacity="1.000000" stroke="none" 
	d="
M779.689819,147.000198 
	C793.310486,148.991165 803.383057,155.906693 811.123718,166.489929 
	C816.083252,173.270752 820.974304,180.101685 825.439941,186.279190 
	C832.866699,177.129578 839.962769,167.400864 848.112061,158.653198 
	C854.884583,151.383270 863.507385,146.561081 874.050049,147.029510 
	C880.869263,147.332520 886.889526,149.701538 889.955627,156.190475 
	C893.141968,162.934113 892.566406,169.971695 888.268433,176.023529 
	C885.112183,180.467743 880.017578,182.128922 874.584961,181.174881 
	C868.905823,180.177536 864.113586,181.989212 860.075134,185.515137 
	C852.095154,192.482529 845.767517,200.832794 841.279663,210.458282 
	C840.646606,211.816147 840.470337,214.021484 841.143860,215.255066 
	C847.283936,226.499985 853.530151,237.692673 860.044067,248.724228 
	C862.015076,252.062164 864.834351,254.922668 867.411255,257.874268 
	C872.309692,263.484985 878.415466,265.439117 885.734985,263.777344 
	C886.659180,263.567505 888.657715,264.195312 888.706482,264.606934 
	C889.466919,271.031281 891.363525,277.732574 890.253235,283.873749 
	C888.434814,293.930817 878.998718,297.335388 869.215271,299.043060 
	C848.573120,302.646088 836.021912,290.940430 825.541565,275.860718 
	C819.915405,267.765533 815.270996,258.988007 810.178894,250.510590 
	C807.241394,256.106628 804.285339,262.143951 800.965027,267.973785 
	C795.107422,278.258667 788.572998,288.086334 778.558044,294.880432 
	C768.593811,301.640106 757.285583,301.257874 747.647827,294.804749 
	C740.575623,290.069397 738.703552,282.562378 740.171204,274.715057 
	C741.422302,268.025391 745.719299,262.825897 752.296936,260.418030 
	C754.325684,259.675385 757.498413,259.931213 759.297119,261.071259 
	C765.576111,265.050995 769.999146,265.024536 774.675110,258.361359 
	C782.463013,247.263641 788.592957,234.997269 795.282288,223.144699 
	C795.753784,222.309204 795.435364,220.631714 794.894348,219.681686 
	C788.960754,209.262970 783.107849,198.788940 776.815918,188.587158 
	C773.083313,182.535004 764.888367,179.880203 757.806152,181.668274 
	C752.725037,182.951141 750.692017,179.015976 749.493225,175.787567 
	C745.037598,163.788773 751.103333,150.962601 764.516541,148.122101 
	C769.285828,147.112106 774.316895,147.338181 779.689819,147.000198 
z"/>
<path fill="#585757" opacity="1.000000" stroke="none" 
	d="
M531.285889,207.647522 
	C540.339417,237.229980 549.178833,266.459961 558.112000,296.000000 
	C551.969177,296.000000 545.214172,296.000000 538.459106,296.000000 
	C531.131531,296.000000 523.803284,296.058929 516.476440,295.985168 
	C507.210541,295.891907 509.554413,297.473450 507.086060,288.442413 
	C504.095459,277.500488 501.753601,266.382111 498.849487,255.414658 
	C498.486572,254.043945 496.432892,252.185516 495.119812,252.150345 
	C484.980225,251.878723 474.830139,252.000732 464.291107,252.000732 
	C460.520996,266.482178 456.778748,280.856720 452.911255,295.712372 
	C442.693695,295.712372 431.598022,295.712372 420.134247,295.712372 
	C423.588837,285.457550 427.001312,275.255859 430.461639,265.070435 
	C438.278534,242.061798 446.126129,219.063629 453.946686,196.056244 
	C457.439362,185.781204 460.814972,175.465530 464.401184,165.223404 
	C466.565216,159.042969 466.808716,156.888077 464.047333,150.466888 
	C477.971222,145.420792 492.019958,145.665054 505.827820,150.193939 
	C511.896149,152.184326 516.041809,157.274277 517.968567,163.560211 
	C522.428406,178.110275 526.714966,192.713425 531.285889,207.647522 
M490.837646,226.997040 
	C491.241364,226.356277 492.098267,225.613419 491.980408,225.090149 
	C490.377594,217.975906 488.749207,210.863388 486.899384,203.810165 
	C485.504517,198.491776 483.783508,193.258926 481.776428,186.545654 
	C477.944458,200.911179 474.514557,213.769424 470.985413,226.999725 
	C477.658142,226.999725 483.807892,226.999725 490.837646,226.997040 
z"/>
<path fill="#00953E" opacity="1.000000" stroke="none" 
	d="
M67.736435,119.010178 
	C66.663857,119.449783 65.781960,119.736481 64.450287,120.095444 
	C29.663122,109.915802 14.682687,83.052704 4.661286,51.666733 
	C18.973398,47.642551 33.158424,45.986595 47.455410,47.100834 
	C72.568367,49.058014 92.382339,60.510075 105.938599,81.985443 
	C109.637566,87.845207 112.663002,94.130142 116.025955,100.591003 
	C108.998840,102.702698 101.679718,103.758987 94.951820,106.350296 
	C85.709007,109.910263 76.913986,114.632843 67.736435,119.010178 
z"/>
<path fill="#585757" opacity="1.000000" stroke="none" 
	d="
M563.556519,345.566284 
	C561.403320,345.888458 559.575195,345.888458 557.035950,345.888458 
	C557.035950,338.643707 556.931030,331.392395 557.150574,324.150909 
	C557.182983,323.081787 558.741760,321.209564 559.610413,321.200226 
	C561.194641,321.183167 563.308594,321.848480 564.278381,323.003937 
	C566.554260,325.715454 568.285156,328.884430 570.515442,332.294556 
	C572.529419,329.140137 574.092285,326.108337 576.239990,323.571716 
	C577.333862,322.279694 579.730896,320.964691 581.076416,321.335999 
	C582.362549,321.690857 583.792664,324.183441 583.869019,325.797394 
	C584.180969,332.399017 583.999084,339.023987 583.999084,345.814636 
	C581.555298,345.814636 579.609863,345.814636 577.208862,345.814636 
	C577.208862,342.747589 577.208862,339.689148 577.208862,336.259705 
	C574.632629,338.418396 572.587646,341.452698 570.361877,341.591736 
	C568.479248,341.709290 566.387207,338.474030 563.881531,336.279083 
	C563.881531,339.452240 563.881531,342.348206 563.556519,345.566284 
z"/>
<path fill="#585757" opacity="1.000000" stroke="none" 
	d="
M769.980957,323.914307 
	C771.813171,326.817719 773.578125,329.345459 775.548889,332.167786 
	C777.466858,329.273895 778.967957,326.340179 781.119934,324.006775 
	C782.463867,322.549500 784.789490,321.997620 786.674622,321.039490 
	C787.449585,322.665833 788.826294,324.267914 788.893127,325.922852 
	C789.153748,332.378510 788.999451,338.850952 788.999451,345.657471 
	C786.720398,345.657471 784.668335,345.657471 782.154297,345.657471 
	C782.154297,342.707153 782.154297,339.662537 782.154297,336.273834 
	C779.590942,338.420288 777.547546,341.448578 775.322144,341.588776 
	C773.455261,341.706421 771.376099,338.455414 769.176758,336.506073 
	C769.176758,339.451080 769.176758,342.347717 769.176758,345.767212 
	C767.164307,345.863800 765.427551,345.947174 763.019165,346.062775 
	C763.019165,338.452393 762.956665,331.032562 763.103638,323.616943 
	C763.120667,322.756683 764.540222,321.103851 764.897827,321.209656 
	C766.646423,321.727051 768.255432,322.716248 769.980957,323.914307 
z"/>
<path fill="#585757" opacity="1.000000" stroke="none" 
	d="
M323.006012,342.006195 
	C317.721405,347.455963 310.910706,345.925354 304.502441,345.809418 
	C303.649017,345.794006 302.166504,343.634186 302.115692,342.419739 
	C301.866364,336.464417 301.865265,330.487122 302.118134,324.532074 
	C302.169128,323.331573 303.594452,321.302368 304.566406,321.188080 
	C307.996368,320.784698 311.588959,320.567596 314.965393,321.160126 
	C321.481842,322.303589 324.062164,327.724304 321.442688,331.050171 
	C322.086426,335.292755 322.537292,338.264435 322.973969,341.644836 
	C322.959778,342.053589 323.006012,342.006195 323.006012,342.006195 
M309.114410,336.697052 
	C308.306702,339.989655 310.317383,340.450775 312.697540,339.912048 
	C313.862946,339.648285 314.827148,338.495514 315.882416,337.745117 
	C314.326508,337.165344 312.784088,336.544067 311.206024,336.032623 
	C310.768677,335.890900 310.225586,336.075409 309.114410,336.697052 
z"/>
<path fill="#585757" opacity="1.000000" stroke="none" 
	d="
M348.000793,342.778351 
	C348.000061,336.972595 347.858337,331.639038 348.080078,326.320618 
	C348.153595,324.557526 349.162201,322.833374 349.743286,321.091431 
	C351.809601,321.870300 354.345184,322.144775 355.841248,323.536621 
	C358.659332,326.158386 360.878204,329.424255 363.789307,332.960724 
	C363.789307,328.839081 363.789307,325.300171 363.789307,321.381042 
	C366.194916,321.381042 368.258148,321.381042 370.979187,321.381042 
	C370.979187,328.581299 371.127899,336.013123 370.901764,343.433533 
	C370.817993,346.182098 367.183105,347.142242 364.850647,344.881256 
	C361.572144,341.703278 358.686432,338.120056 355.217041,334.245972 
	C355.217041,338.173798 355.217041,341.822571 355.217041,346.276367 
	C352.410767,344.804474 348.642273,348.773376 348.000793,342.778351 
z"/>
<path fill="#585757" opacity="1.000000" stroke="none" 
	d="
M609.000000,334.009033 
	C609.000122,330.693726 608.844543,327.857361 609.068176,325.051270 
	C609.174744,323.714844 609.791565,321.509521 610.551086,321.336243 
	C611.869812,321.035309 613.897339,321.571045 614.889648,322.524261 
	C618.181824,325.686981 621.145142,329.191956 624.820190,333.205139 
	C624.820190,328.879181 624.820190,325.206848 624.820190,321.277527 
	C627.387512,321.277527 629.442261,321.277527 631.990723,321.277527 
	C631.990723,328.296021 632.084534,335.227600 631.905579,342.152130 
	C631.872803,343.418945 630.880310,345.578308 630.067261,345.711060 
	C628.512024,345.964935 626.290222,345.566437 625.192688,344.535950 
	C622.159729,341.688324 619.563416,338.375641 616.099487,334.461517 
	C616.099487,338.832092 616.099487,342.073914 616.099487,345.655640 
	C613.744385,345.655640 611.684998,345.655640 609.000000,345.655640 
	C609.000000,342.022125 609.000000,338.261292 609.000000,334.009033 
z"/>
<path fill="#585757" opacity="1.000000" stroke="none" 
	d="
M395.022827,331.423584 
	C396.670502,326.093140 399.515289,322.024170 404.817017,321.127960 
	C409.683777,320.305237 414.590118,320.711670 418.070099,325.266113 
	C421.672028,329.980133 422.049347,335.869965 418.839539,340.658722 
	C415.747894,345.271210 409.276764,347.488129 403.651184,345.862000 
	C399.688812,344.716644 395.356934,338.957489 395.009766,334.333252 
	C394.947662,333.506073 395.003815,332.670074 395.022827,331.423584 
M409.147186,327.052155 
	C404.917206,326.562012 402.844757,329.809875 402.418732,332.712311 
	C402.116486,334.771149 404.389618,337.661743 406.259338,339.359192 
	C406.991791,340.024078 410.253296,338.969696 411.510559,337.789948 
	C415.284088,334.249084 414.834747,332.363434 409.147186,327.052155 
z"/>
<path fill="#585757" opacity="1.000000" stroke="none" 
	d="
M792.000000,335.910522 
	C792.000000,333.101105 791.998901,330.772125 792.000244,328.443146 
	C792.004333,321.420990 792.257996,321.154572 799.511230,320.881836 
	C800.661377,315.573242 804.315918,314.096222 809.662170,315.250824 
	C808.003723,317.033173 806.409241,318.746674 804.528198,320.768219 
	C806.534119,320.902863 808.515137,321.035858 810.742676,321.185394 
	C810.742676,323.029266 810.742676,324.771851 810.742676,327.005554 
	C807.528931,327.005554 804.404663,326.924683 801.290100,327.063629 
	C800.531311,327.097473 799.804749,327.853546 799.063354,328.277588 
	C799.824646,328.850037 800.530518,329.797394 801.358398,329.919830 
	C803.313171,330.208893 805.454834,329.711365 807.268372,330.304413 
	C808.405884,330.676392 809.085449,332.448486 809.970520,333.592377 
	C808.924927,334.393433 807.982361,335.594696 806.808350,335.896912 
	C805.247681,336.298615 803.416138,335.674530 801.871765,336.104645 
	C800.640198,336.447632 799.664368,337.708801 798.575012,338.562408 
	C798.856934,339.004761 799.138916,339.447144 799.420837,339.889496 
	C803.037354,339.889496 806.653870,339.889496 810.752747,339.889496 
	C810.853210,341.892609 810.940002,343.622894 811.058960,345.995270 
	C805.893738,345.995270 800.928650,346.305298 796.046265,345.806366 
	C794.580566,345.656586 792.855286,343.463440 792.146606,341.819366 
	C791.481140,340.275696 792.001465,338.220917 792.000000,335.910522 
z"/>
<path fill="#585757" opacity="1.000000" stroke="none" 
	d="
M663.599792,321.014526 
	C674.831909,320.992310 679.440063,324.297211 679.998291,332.461639 
	C680.448303,339.043976 676.833435,344.501160 671.084473,345.918488 
	C664.467834,347.549713 657.801208,344.558075 655.368530,338.865936 
	C652.650635,332.506348 654.876526,325.771545 660.970154,322.018127 
	C661.651428,321.598511 662.439514,321.352417 663.599792,321.014526 
M671.957703,337.216553 
	C673.681946,333.542145 673.605713,330.391388 669.766418,327.924774 
	C666.719299,325.967163 664.612000,327.722473 662.966980,329.685577 
	C660.954407,332.087280 660.867676,335.027618 663.069641,337.504669 
	C665.673767,340.434143 668.593750,340.800903 671.957703,337.216553 
z"/>
<path fill="#585757" opacity="1.000000" stroke="none" 
	d="
M722.078979,345.432922 
	C711.000000,346.682770 710.999878,346.682770 711.000061,336.198029 
	C711.000122,332.365448 710.848572,328.523254 711.088806,324.705750 
	C711.167114,323.460632 712.062622,321.419189 712.934692,321.211243 
	C718.084473,319.983337 729.004578,322.882629 731.164062,327.127258 
	C735.411621,335.476166 732.245422,342.527802 722.078979,345.432922 
M718.000000,331.692291 
	C718.000000,334.077972 718.000000,336.463654 718.000000,338.849335 
	C718.492310,339.195496 718.984680,339.541656 719.476990,339.887787 
	C721.506470,338.231140 724.247437,336.960266 725.402649,334.829651 
	C727.247192,331.427338 724.327087,329.500763 721.592651,328.311768 
	C719.529968,327.414825 717.623779,327.694397 718.000000,331.692291 
z"/>
<path fill="#585757" opacity="1.000000" stroke="none" 
	d="
M452.000366,341.692383 
	C452.000153,335.899048 452.137726,330.572693 451.950012,325.257843 
	C451.833832,321.968292 453.113892,320.963440 456.326599,320.933533 
	C465.079773,320.852081 471.067017,323.885742 473.024048,329.815430 
	C475.119324,336.164154 472.951508,341.630890 466.661377,343.949799 
	C463.091644,345.265808 459.080292,345.654785 455.243378,345.795715 
	C454.208374,345.833710 453.084076,343.441132 452.000366,341.692383 
M460.272308,328.031281 
	C459.687134,331.541382 459.101959,335.051514 458.483734,338.759796 
	C462.793304,339.135986 465.542938,338.606232 466.220947,334.486053 
	C466.894684,330.391785 464.783600,328.626831 460.272308,328.031281 
z"/>
<path fill="#585757" opacity="1.000000" stroke="none" 
	d="
M475.000000,332.052460 
	C474.792145,320.671997 474.647888,320.799927 485.529999,320.993073 
	C488.161774,321.039764 490.795074,321.000000 493.710327,321.000000 
	C493.710327,323.033234 493.710327,324.755188 493.710327,327.005157 
	C490.558594,327.005157 487.438507,326.891907 484.337280,327.083801 
	C483.549377,327.132568 482.821472,328.151611 482.065979,328.724854 
	C482.808990,329.147980 483.521881,329.854370 484.301117,329.937317 
	C486.109680,330.129730 488.112793,329.579163 489.726990,330.172882 
	C491.043427,330.657074 491.910370,332.363434 492.976562,333.527893 
	C491.786041,334.351227 490.696167,335.507874 489.377258,335.905975 
	C488.006348,336.319824 486.316620,335.679688 484.947205,336.095825 
	C483.690521,336.477661 482.674805,337.652679 481.552917,338.478271 
	C481.818878,338.983704 482.084839,339.489166 482.350769,339.994598 
	C486.097443,339.994598 489.844086,339.994598 493.788300,339.994598 
	C493.788300,342.057709 493.788300,343.668823 493.788300,345.980713 
	C488.808380,345.980713 483.696198,346.289581 478.668060,345.775879 
	C477.314972,345.637604 475.497833,343.143585 475.162445,341.475769 
	C474.584259,338.600891 475.000824,335.525970 475.000000,332.052460 
z"/>
<path fill="#585757" opacity="1.000000" stroke="none" 
	d="
M752.924683,341.156006 
	C752.982117,342.915497 752.982117,344.212555 752.982117,345.996796 
	C747.891235,345.996796 743.060852,346.412842 738.375427,345.771088 
	C736.735840,345.546539 734.415039,342.840149 734.205872,341.055939 
	C733.629395,336.140106 733.843933,331.105591 734.061218,326.131805 
	C734.205078,322.839020 735.649841,320.660980 739.635376,320.934113 
	C743.904053,321.226624 748.208252,321.000122 752.742188,321.000122 
	C752.742188,323.094482 752.742188,324.816071 752.742188,327.005951 
	C749.491150,327.005951 746.369751,326.923920 743.258484,327.065308 
	C742.508606,327.099426 741.792358,327.873505 741.060608,328.307281 
	C741.830872,328.869904 742.544495,329.785126 743.383484,329.919861 
	C745.003113,330.179932 746.816895,329.621948 748.318481,330.112457 
	C749.699219,330.563507 750.775513,331.946442 751.985962,332.918823 
	C750.829590,333.945007 749.825928,335.407959 748.475769,335.879974 
	C746.994934,336.397675 745.110168,335.688477 743.561157,336.106079 
	C742.397583,336.419830 741.486389,337.669434 740.462830,338.502380 
	C740.726868,338.862793 740.990906,339.223236 741.254883,339.583679 
	C745.125671,339.953613 748.996460,340.323578 752.924683,341.156006 
z"/>
<path fill="#585757" opacity="1.000000" stroke="none" 
	d="
M587.000000,330.133789 
	C587.001709,321.000427 587.001709,321.000397 595.475647,321.000031 
	C598.780457,320.999878 602.085205,321.000000 605.691895,321.000000 
	C605.691895,323.011292 605.691895,324.734772 605.691895,327.009460 
	C602.425659,327.009460 599.139160,326.922302 595.865112,327.085876 
	C595.238953,327.117188 594.662170,328.136719 594.062622,328.700348 
	C594.633362,329.129517 595.174561,329.871765 595.780518,329.929047 
	C597.595215,330.100555 599.588562,329.568542 601.219482,330.142670 
	C602.670837,330.653656 603.731567,332.274078 604.964722,333.404846 
	C603.661011,334.269745 602.458252,335.454346 601.024475,335.907166 
	C599.662537,336.337341 597.962280,335.683838 596.590698,336.099915 
	C595.413757,336.456970 594.491028,337.652161 593.455933,338.476685 
	C593.716919,338.957123 593.977905,339.437531 594.238892,339.917969 
	C597.991150,339.917969 601.743347,339.917969 605.742188,339.917969 
	C605.742188,342.095215 605.742188,343.819275 605.742188,345.996307 
	C600.812439,345.996307 595.983215,346.354248 591.263000,345.794098 
	C589.698792,345.608521 587.488464,343.224182 587.194336,341.558807 
	C586.567261,338.009003 587.000977,334.271820 587.000000,330.133789 
z"/>
<path fill="#585757" opacity="1.000000" stroke="none" 
	d="
M692.980164,321.000000 
	C695.372986,321.234344 697.588562,320.980286 699.148743,321.872437 
	C700.212708,322.480835 700.686096,324.681793 700.727905,326.190033 
	C700.741211,326.666809 698.503479,327.635620 697.300049,327.628876 
	C694.632324,327.614014 691.967224,327.123810 689.301086,326.827423 
	C689.150208,327.347473 688.999329,327.867554 688.848389,328.387634 
	C691.064331,329.323792 693.268005,330.290375 695.498535,331.190247 
	C701.537659,333.626678 703.876526,338.184998 700.713196,342.345062 
	C699.391296,344.083466 696.775269,345.654419 694.647522,345.795868 
	C690.019653,346.103546 685.327454,345.443756 680.377991,345.163361 
	C680.742676,342.573608 680.960083,341.029816 681.236938,339.063934 
	C685.339600,339.425354 689.490601,339.791016 693.641663,340.156708 
	C693.809082,339.751984 693.976440,339.347290 694.143799,338.942566 
	C692.631531,338.043671 691.223145,336.774506 689.587463,336.315491 
	C684.737854,334.954834 680.890747,332.540131 681.161438,327.038239 
	C681.368286,322.833405 685.378967,321.001312 692.980164,321.000000 
z"/>
<path fill="#585757" opacity="1.000000" stroke="none" 
	d="
M434.790833,339.305847 
	C431.671936,337.174561 428.352203,335.592834 425.245605,333.667297 
	C422.267700,331.821625 421.244385,328.935486 422.223114,325.534760 
	C423.268066,321.903778 426.394073,321.313507 429.499390,321.045166 
	C431.973511,320.831360 434.504852,320.790863 436.964935,321.073273 
	C438.646973,321.266388 441.182281,321.740997 441.653412,322.822693 
	C442.247528,324.186646 441.127991,326.297028 440.854248,327.584564 
	C436.798615,327.349396 433.519501,327.159271 430.240387,326.969116 
	C430.114075,327.465668 429.987762,327.962189 429.861450,328.458710 
	C431.964172,329.322418 434.105194,330.104431 436.161072,331.068054 
	C439.687958,332.721039 442.974487,334.910065 442.830719,339.269623 
	C442.703979,343.112640 438.463013,345.906372 433.532196,345.990051 
	C431.040955,346.032318 428.501953,346.270203 426.065552,345.894531 
	C421.319122,345.162811 420.901093,344.281311 422.117096,339.705109 
	C426.338257,339.705109 430.510742,339.705109 434.790833,339.305847 
z"/>
<path fill="#585757" opacity="1.000000" stroke="none" 
	d="
M830.896484,321.000000 
	C832.291443,321.000000 833.285950,321.000000 834.996887,321.000000 
	C832.677002,324.924469 830.513123,328.417450 828.559082,332.024109 
	C828.139709,332.798279 828.102539,334.205322 828.534729,334.942383 
	C830.564758,338.404236 832.820007,341.734039 835.081848,345.246155 
	C829.338867,347.498810 825.670898,345.566711 823.393860,339.618683 
	C820.693298,344.174805 817.857178,347.832855 811.602966,345.253418 
	C813.199158,342.554108 814.386841,339.471161 816.488647,337.255219 
	C819.301697,334.289276 818.307129,331.850250 816.592529,329.166260 
	C815.042847,326.740509 813.403503,324.372009 811.393372,321.364319 
	C814.527954,321.364319 816.900146,321.364319 819.448914,321.364319 
	C820.520142,323.006653 821.739929,324.876617 822.495728,326.035278 
	C825.356750,324.234558 827.926392,322.617279 830.896484,321.000000 
z"/>
<path fill="#585757" opacity="1.000000" stroke="none" 
	d="
M322.939545,342.079773 
	C325.284027,336.852295 327.452087,331.496155 330.109009,326.394623 
	C331.192047,324.315063 333.335724,322.787842 334.996887,321.009338 
	C336.519867,322.696960 338.581543,324.143066 339.466370,326.116730 
	C342.296722,332.430145 344.690857,338.939148 347.354645,345.626923 
	C342.977203,346.294769 339.114685,347.097137 338.743500,341.086365 
	C334.737244,341.211823 329.951721,339.136505 329.724182,346.465485 
	C327.259064,344.760712 322.843353,348.786530 323.004272,342.434021 
	C323.006012,342.006195 322.959778,342.053589 322.939545,342.079773 
z"/>
<path fill="#585757" opacity="1.000000" stroke="none" 
	d="
M514.761841,341.005096 
	C510.822205,340.785339 507.455627,340.772369 507.934509,345.852234 
	C505.529236,345.852234 503.566528,345.852234 500.918762,345.852234 
	C501.215210,344.352783 501.277771,342.961395 501.767578,341.741638 
	C504.124268,335.872559 506.460968,329.986908 509.125488,324.256226 
	C509.764709,322.881409 511.524261,321.472748 512.967468,321.221375 
	C513.930664,321.053650 515.770691,322.672333 516.316895,323.894379 
	C519.475525,330.960999 522.366028,338.147430 525.495605,345.648895 
	C521.321045,346.042328 517.443665,347.422760 516.809814,341.736298 
	C516.776550,341.437592 515.756165,341.248932 514.761841,341.005096 
z"/>
<path fill="#585757" opacity="1.000000" stroke="none" 
	d="
M380.977295,331.805450 
	C380.504059,337.741913 384.174591,341.185852 389.527802,339.642334 
	C392.275696,338.850067 393.656891,338.872650 393.994720,341.931122 
	C394.325684,344.927887 392.998718,345.827698 390.001831,346.087677 
	C378.097443,347.120422 373.372833,340.608093 373.020447,334.162994 
	C372.629242,327.007507 378.019257,321.225494 385.169922,321.011963 
	C387.331940,320.947388 389.735748,320.457336 391.578094,321.232880 
	C392.791107,321.743530 393.469086,324.119904 393.771332,325.773315 
	C393.845154,326.177094 391.363068,327.744171 390.297119,327.536926 
	C386.185669,326.737488 382.913391,327.263702 380.977295,331.805450 
z"/>
<path fill="#585757" opacity="1.000000" stroke="none" 
	d="
M860.151672,339.995697 
	C862.128174,339.653381 863.693420,339.308716 865.458984,338.919952 
	C866.035217,340.696686 866.571533,342.350403 867.091248,343.952881 
	C862.353271,346.988586 854.177734,346.691803 849.968689,343.453033 
	C846.696899,340.935455 844.457581,332.779144 846.276062,328.373047 
	C848.092224,323.972412 851.830933,321.689514 856.486511,321.033844 
	C857.951538,320.827484 859.470032,320.998322 860.964050,321.000397 
	C867.902893,321.010101 868.014404,321.191315 865.427734,327.415314 
	C862.839294,327.415314 860.099915,326.675751 858.179932,327.613617 
	C856.062561,328.647949 853.904480,330.969147 853.197754,333.186676 
	C852.234863,336.207916 854.452148,338.270844 857.511169,339.113281 
	C858.276978,339.324158 858.998535,339.695679 860.151672,339.995697 
z"/>
<path fill="#585757" opacity="1.000000" stroke="none" 
	d="
M640.000000,339.903931 
	C640.000000,335.462128 640.000000,331.503601 640.000000,327.085510 
	C637.606934,327.085510 635.546021,327.085510 633.246948,327.085510 
	C633.246948,324.894073 633.246948,323.169128 633.246948,321.231171 
	C640.483154,321.231171 647.542358,321.231171 654.799316,321.231171 
	C654.799316,323.071045 654.799316,324.683014 654.799316,326.710938 
	C652.805237,326.867096 650.725525,327.029968 648.183838,327.229034 
	C648.183838,333.239014 648.183838,339.306824 648.183838,345.682190 
	C645.349670,345.682190 642.961853,345.682190 640.000000,345.682190 
	C640.000000,343.928864 640.000000,342.158020 640.000000,339.903931 
z"/>
<path fill="#585757" opacity="1.000000" stroke="none" 
	d="
M533.000000,334.877563 
	C533.078064,336.802338 533.156189,338.243134 533.249695,339.967224 
	C537.159363,339.967224 540.763550,339.967224 544.680359,339.967224 
	C544.680359,341.987946 544.680359,343.711365 544.680359,345.970734 
	C539.629822,345.970734 534.517700,346.176727 529.445007,345.820679 
	C528.230835,345.735474 526.207764,343.819092 526.158447,342.675842 
	C525.853149,335.591095 526.004944,328.486694 526.004944,321.198517 
	C528.422913,321.198517 530.368286,321.198517 533.000000,321.198517 
	C533.000000,325.554718 533.000000,329.974121 533.000000,334.877563 
z"/>
<path fill="#585757" opacity="1.000000" stroke="none" 
	d="
M844.000000,332.014984 
	C844.000000,336.793152 844.000000,341.075897 844.000000,345.677795 
	C841.688843,345.677795 839.640686,345.677795 837.293396,345.677795 
	C837.293396,337.706268 837.293396,329.676361 837.293396,321.321747 
	C839.311951,321.321747 841.360168,321.321747 844.000000,321.321747 
	C844.000000,324.676575 844.000000,328.098083 844.000000,332.014984 
z"/>
<path fill="#585757" opacity="1.000000" stroke="none" 
	d="
M547.168579,345.924927 
	C546.705566,337.708557 546.705566,329.549133 546.705566,321.193237 
	C548.428772,321.193237 550.370911,321.193237 552.657288,321.193237 
	C552.657288,329.178772 552.657288,337.217041 552.657288,345.981842 
	C551.092834,345.981842 549.362183,345.981842 547.168579,345.924927 
z"/>
<path fill="#FFFEFC" opacity="1.000000" stroke="none" 
	d="
M801.996582,492.910034 
	C801.390137,481.644928 800.987244,470.848755 800.061646,460.097565 
	C799.756714,456.556488 798.100159,453.131805 796.922485,449.187500 
	C802.586243,446.229614 808.940979,445.984589 815.262085,447.614960 
	C819.540039,448.718353 820.987488,452.561340 820.992065,456.630676 
	C821.002808,466.277740 821.092590,475.942688 820.567871,485.568634 
	C819.554321,504.161713 818.141296,522.733032 816.880981,541.312500 
	C816.827026,542.108032 816.644287,542.894836 816.442749,544.193359 
	C808.494507,544.193359 800.706970,544.340149 792.938354,544.022766 
	C791.869873,543.979126 790.549866,541.778320 789.930908,540.326965 
	C783.615479,525.517029 777.618408,510.568176 771.106995,495.846313 
	C767.985779,488.789642 763.685181,482.336639 757.253540,476.423157 
	C757.253540,499.455078 757.253540,521.480591 757.253540,543.854919 
	C750.475220,543.854919 744.070007,543.854919 737.174988,543.854919 
	C737.174988,535.362305 736.977905,526.769653 737.215454,518.188965 
	C737.730957,499.569580 738.584961,480.959076 739.026978,462.338440 
	C739.127319,458.111572 738.113953,453.858246 737.520874,448.835510 
	C745.212524,445.796448 753.644470,445.920776 762.063843,448.553772 
	C771.503662,451.505920 779.102295,457.464539 783.932190,465.842072 
	C789.624512,475.715424 794.066162,486.312408 798.981506,496.628357 
	C799.749634,498.240479 800.153687,500.026001 800.726074,501.731354 
	C801.149597,501.720734 801.573059,501.710083 801.996582,501.699463 
	C801.996582,498.931824 801.996582,496.164154 801.996582,492.910034 
z"/>
<path fill="#FFFEFC" opacity="1.000000" stroke="none" 
	d="
M212.771027,453.809265 
	C213.863358,459.282227 213.022079,463.867737 208.905960,467.343018 
	C206.443207,469.422363 204.246216,469.660492 200.545273,468.650330 
	C194.351318,466.959686 187.494064,467.620270 180.913727,467.566132 
	C180.357483,467.561523 179.353912,469.603973 179.296707,470.732910 
	C179.096176,474.690308 179.218933,478.664062 179.218933,482.996460 
	C183.876282,482.996460 188.462311,482.866669 193.036179,483.046509 
	C195.663498,483.149811 198.369522,483.434296 200.867157,484.200806 
	C206.123138,485.813934 207.836548,489.807129 206.221176,495.772308 
	C204.585129,501.813904 202.214737,502.989655 196.215973,502.404388 
	C190.660385,501.862366 185.010315,502.288879 179.047073,502.288879 
	C178.721237,508.605682 178.416306,514.517029 178.104111,520.569275 
	C187.180817,520.569275 195.914886,521.023010 204.558563,520.337402 
	C207.838120,520.077148 209.895920,520.540527 211.966400,522.723938 
	C215.605896,526.561951 216.817795,530.923950 215.162857,536.032288 
	C213.578918,540.921448 209.809433,543.714966 205.146210,543.794739 
	C186.381882,544.115784 167.608856,543.927673 148.413574,543.927673 
	C148.413574,535.753906 148.183472,527.817078 148.459717,519.897888 
	C149.108963,501.286377 150.133682,482.687378 150.700851,464.073975 
	C150.844940,459.345306 149.845520,454.581757 149.307648,449.194336 
	C152.668961,448.685394 156.535004,447.617523 160.405838,447.599945 
	C174.853668,447.534302 189.317551,447.511719 203.740158,448.205627 
	C206.783371,448.352051 209.677505,451.597351 212.771027,453.809265 
z"/>
<path fill="#FFFEFD" opacity="1.000000" stroke="none" 
	d="
M248.997223,520.028442 
	C248.993057,528.161499 248.993057,535.798401 248.993057,543.819214 
	C239.086487,543.819214 229.381363,543.819214 219.508560,543.819214 
	C219.508560,532.804565 219.283707,521.728333 219.561462,510.664734 
	C219.974380,494.217072 220.862747,477.781311 221.268051,461.333557 
	C221.359512,457.621979 220.295181,453.881897 219.645035,449.329681 
	C222.161240,448.820496 225.131805,447.894806 228.155472,447.663574 
	C241.416946,446.649445 254.705414,445.541473 267.828064,448.954895 
	C269.594910,449.414551 271.356781,449.919617 273.077026,450.527924 
	C283.539276,454.227478 292.158447,459.915070 292.940643,472.197205 
	C293.804901,485.768402 289.010620,497.173279 276.248535,502.985809 
	C267.977142,506.753052 258.701447,508.315247 249.001389,511.118103 
	C249.001389,512.964417 249.001389,516.248291 248.997223,520.028442 
M266.798767,476.431732 
	C266.195587,467.392395 260.631317,463.684174 250.558121,465.959717 
	C250.188675,474.388031 249.814621,482.921753 249.439056,491.489990 
	C260.709076,491.075439 264.516235,487.862183 266.798767,476.431732 
z"/>
<path fill="#FFFEFD" opacity="1.000000" stroke="none" 
	d="
M372.986816,535.943726 
	C373.907440,538.815369 374.742706,541.299438 375.718781,544.202271 
	C365.695557,544.202271 356.052216,544.309265 346.417725,544.065918 
	C345.222809,544.035645 343.371429,542.340454 343.019440,541.082336 
	C340.738800,532.930359 338.789520,524.685730 336.585419,515.887695 
	C329.698303,515.887695 322.744171,515.752075 315.807678,516.040527 
	C314.818329,516.081604 313.427704,518.037109 313.050690,519.345154 
	C310.749573,527.329346 308.687592,535.382324 306.433197,543.834961 
	C299.857819,543.834961 292.966461,543.834961 285.417023,543.834961 
	C287.892151,536.499390 290.257935,529.449707 292.648956,522.408569 
	C299.807648,501.327332 307.058533,480.276672 314.052734,459.141052 
	C315.110474,455.944611 314.990814,452.358612 315.491180,448.348358 
	C323.959991,446.016663 332.934235,445.737976 341.773102,449.056610 
	C346.533173,450.843811 348.630096,455.042664 350.023895,459.680389 
	C357.627167,484.979095 365.271362,510.265472 372.986816,535.943726 
M322.822510,482.254211 
	C321.374573,487.672241 319.926636,493.090271 318.380219,498.876831 
	C323.534454,498.876831 328.092560,498.876831 333.016174,498.876831 
	C330.664734,490.127625 328.406921,481.726868 326.149109,473.326080 
	C325.844177,473.354248 325.539276,473.382416 325.234344,473.410583 
	C324.478455,476.093414 323.722595,478.776276 322.822510,482.254211 
z"/>
<path fill="#FFFEFD" opacity="1.000000" stroke="none" 
	d="
M661.016602,486.009399 
	C664.481995,473.414581 671.331421,462.136414 671.237488,448.419159 
	C679.754456,446.037689 688.557129,445.813721 697.286011,448.830902 
	C702.320374,450.570984 704.574829,454.817993 706.020569,459.636597 
	C713.325195,483.983551 720.650269,508.324432 727.994690,532.659363 
	C729.094543,536.303589 730.335205,539.905273 731.726990,544.192749 
	C721.537659,544.192749 711.645508,544.284607 701.761169,544.049072 
	C700.785339,544.025879 699.339294,542.141479 698.991211,540.878479 
	C696.745789,532.731628 694.744934,524.517273 692.549988,515.876831 
	C685.672607,515.876831 678.875000,515.740662 672.094360,516.018250 
	C671.032593,516.061707 669.480042,517.821594 669.119568,519.067078 
	C666.767090,527.195923 664.680847,535.401855 662.419922,543.912598 
	C655.890930,543.912598 649.129211,543.912598 641.375793,543.912598 
	C647.962219,524.516785 654.436279,505.451660 661.016602,486.009399 
M687.200745,492.193024 
	C685.544128,485.937683 683.887512,479.682373 682.230957,473.427063 
	C681.844482,473.477722 681.458069,473.528412 681.071655,473.579102 
	C678.889587,481.924286 676.707520,490.269440 674.443298,498.929077 
	C679.746155,498.929077 684.171143,498.929077 689.003784,498.929077 
	C688.431396,496.743195 687.938354,494.860016 687.200745,492.193024 
z"/>
<path fill="#FFFDFB" opacity="1.000000" stroke="none" 
	d="
M117.004868,499.014343 
	C117.004082,514.141785 117.004082,528.771423 117.004082,543.804443 
	C106.853241,543.804443 97.141594,543.804443 86.066978,543.804443 
	C86.960190,519.029968 87.853813,494.244141 88.737549,469.732635 
	C83.845703,469.461426 79.124794,469.777954 74.673996,468.828430 
	C66.291443,467.039978 62.526329,457.033417 67.444946,450.387817 
	C68.163216,449.417389 69.745148,448.525848 70.917091,448.538757 
	C81.834579,448.658875 92.748581,449.100616 103.666054,449.215607 
	C112.814941,449.311981 121.989861,448.660431 131.111725,449.136292 
	C141.153091,449.660156 146.327423,459.587189 141.177887,467.858887 
	C140.415634,469.083252 138.113831,470.072693 136.599396,469.977417 
	C130.675293,469.604736 124.781319,468.753113 118.170975,467.999054 
	C117.761353,478.726135 117.383507,488.621368 117.004868,499.014343 
z"/>
<path fill="#FFFEFC" opacity="1.000000" stroke="none" 
	d="
M557.984131,469.485748 
	C552.495789,469.031281 547.399353,468.719574 541.319824,468.347748 
	C540.743164,493.953552 540.183411,518.810425 539.617554,543.935303 
	C530.093567,543.935303 520.496704,543.935303 509.604614,543.935303 
	C510.460144,519.232483 511.314178,494.574249 512.183594,469.471283 
	C508.279602,469.471283 504.490356,469.847076 500.801086,469.399200 
	C490.673615,468.169739 485.474091,458.223328 490.825348,450.537781 
	C491.531372,449.523773 493.076019,448.467438 494.219452,448.481354 
	C505.135162,448.614258 516.046692,449.101074 526.962402,449.228912 
	C536.113342,449.336121 545.285645,448.714325 554.416809,449.122864 
	C563.866028,449.545624 568.798645,457.318237 565.686768,465.955536 
	C564.440125,469.415649 562.591736,471.949066 557.984131,469.485748 
z"/>
<path fill="#FFFEFC" opacity="1.000000" stroke="none" 
	d="
M414.006744,449.086426 
	C421.327942,449.058838 428.191010,448.595764 434.964600,449.176575 
	C444.547333,449.998291 449.207581,459.100372 444.853638,467.534302 
	C443.692566,469.783447 442.518280,470.891571 439.426819,470.109406 
	C435.145020,469.026062 430.570374,469.129456 426.132629,468.623718 
	C422.592346,468.220276 421.157990,469.355133 421.118774,473.242279 
	C420.891937,495.710114 420.401031,518.175293 420.002838,540.641418 
	C419.985626,541.612244 420.000641,542.583679 420.000641,543.879761 
	C409.952820,543.879761 400.243713,543.879761 389.488556,543.879761 
	C390.349213,519.043213 391.204407,494.364227 392.070435,469.372406 
	C388.003296,469.372406 384.184967,469.781494 380.483948,469.296143 
	C369.157349,467.810730 365.211914,457.452423 371.823212,449.116974 
	C386.079529,449.116974 399.794098,449.116974 414.006744,449.086426 
z"/>
<path fill="#FFFEFC" opacity="1.000000" stroke="none" 
	d="
M625.716797,544.194946 
	C607.651062,544.203552 590.050842,544.203552 572.245667,544.203552 
	C572.245667,533.171692 572.020386,522.578247 572.297729,511.998047 
	C572.728882,495.547974 573.626831,479.110046 574.044128,462.659790 
	C574.151367,458.429138 573.201233,454.171661 572.649902,449.131836 
	C580.913879,446.370789 589.971069,445.235565 598.984009,448.465668 
	C603.547791,450.101227 603.968872,454.847046 603.824890,459.079224 
	C603.344666,473.198181 602.589783,487.307800 602.111023,501.426788 
	C601.892578,507.869263 602.073975,514.325317 602.073975,521.836853 
	C611.253357,521.294250 620.118835,520.700073 628.993347,520.309204 
	C630.627014,520.237244 632.647461,520.518799 633.888245,521.443726 
	C638.777771,525.088196 640.554749,530.575378 638.706116,536.053223 
	C636.712341,541.961121 631.829956,543.738953 625.716797,544.194946 
z"/>
<path fill="#FFFEFC" opacity="1.000000" stroke="none" 
	d="
M482.898071,453.415710 
	C483.069702,462.761963 483.182404,471.717590 483.194702,480.673340 
	C483.223358,501.601715 483.203827,522.530151 483.203827,543.832886 
	C472.826721,543.832886 462.939270,543.832886 452.419464,543.832886 
	C452.419464,536.075562 452.268860,528.318481 452.448792,520.568970 
	C452.915710,500.459900 453.627838,480.356018 453.988800,460.245483 
	C454.052551,456.693420 452.892426,453.119415 452.235870,449.186798 
	C460.140472,446.285370 468.577942,446.018372 476.935333,447.607452 
	C479.151306,448.028809 480.854736,451.145844 482.898071,453.415710 
z"/>
<path fill="#FFFCF8" opacity="1.000000" stroke="none" 
	d="
M702.643066,427.027039 
	C701.066833,433.617859 692.599731,441.164490 686.347778,441.502106 
	C684.781372,441.586761 682.451538,440.749542 681.733826,439.569061 
	C681.034851,438.419525 681.365784,435.836151 682.265137,434.668274 
	C685.417358,430.574921 688.684021,426.706696 689.012329,421.166687 
	C689.057800,420.398651 690.755127,419.304871 691.831604,419.093140 
	C697.122620,418.052368 701.039246,420.887573 702.643066,427.027039 
z"/>
<path fill="#FFFFFF" opacity="1.000000" stroke="none" 
	d="
M877.319641,338.697327 
	C876.604553,337.764435 876.208618,337.065063 875.815125,336.364349 
	C873.969543,333.077545 874.863037,329.940094 877.724243,328.293610 
	C879.288330,327.393616 883.510437,327.897980 883.958008,328.909149 
	C885.054443,331.386383 885.518677,334.835388 884.628601,337.316132 
	C883.627441,340.106506 880.523926,340.671906 877.319641,338.697327 
z"/>
<path fill="#FFFEFD" opacity="1.000000" stroke="none" 
	d="
M160.001648,174.013214 
	C166.952133,172.191208 173.499481,170.448318 180.002396,168.717270 
	C188.139099,191.533813 172.715485,218.327240 147.881027,225.208740 
	C123.425850,231.985184 96.548203,216.542221 91.560684,192.398895 
	C114.217888,186.302658 136.908203,180.197510 160.001648,174.013214 
z"/>
<path fill="#FEFBFA" opacity="1.000000" stroke="none" 
	d="
M82.759331,156.673218 
	C85.282150,150.962311 89.176598,148.899551 93.759918,150.536652 
	C97.940399,152.029831 100.216599,156.168808 99.209045,160.445114 
	C98.132332,165.014954 94.128716,167.698120 89.492599,166.956940 
	C85.006165,166.239700 82.655098,162.823914 82.759331,156.673218 
z"/>
<path fill="#FEFBFB" opacity="1.000000" stroke="none" 
	d="
M169.967285,144.833374 
	C165.139496,148.221313 161.119553,148.366776 157.981201,145.358643 
	C154.844391,142.352005 154.233047,138.685562 156.307373,134.929550 
	C158.407471,131.126892 161.931244,129.935440 166.085907,130.971008 
	C171.966721,132.436829 173.718353,138.308243 169.967285,144.833374 
z"/>
<path fill="#FFFFFF" opacity="1.000000" stroke="none" 
	d="
M366.148621,269.355225 
	C362.390259,270.760254 358.956360,272.437531 355.371948,272.871277 
	C349.640137,273.564972 346.151581,269.799164 346.044067,263.148987 
	C345.878876,252.935303 346.000610,242.716980 346.000610,232.703079 
	C356.011505,231.215454 366.907745,237.118546 371.080353,245.341507 
	C374.868042,252.805939 372.943665,262.573547 366.148621,269.355225 
z"/>
<path fill="#FFFFFF" opacity="1.000000" stroke="none" 
	d="
M361.160339,176.624786 
	C367.611206,178.801346 370.857361,182.693893 370.999847,188.316696 
	C371.168640,194.978424 367.693176,201.150452 362.199219,202.821152 
	C357.888672,204.132034 353.349609,204.691666 348.654602,205.636871 
	C348.654602,195.067902 348.654602,185.282761 348.654602,174.523376 
	C353.237823,175.213501 357.044037,175.786621 361.160339,176.624786 
z"/>
<path fill="#FFFFFF" opacity="1.000000" stroke="none" 
	d="
M490.397644,226.998383 
	C483.807892,226.999725 477.658142,226.999725 470.985413,226.999725 
	C474.514557,213.769424 477.944458,200.911179 481.776428,186.545654 
	C483.783508,193.258926 485.504517,198.491776 486.899384,203.810165 
	C488.749207,210.863388 490.377594,217.975906 491.980408,225.090149 
	C492.098267,225.613419 491.241364,226.356277 490.397644,226.998383 
z"/>
<path fill="#FFFFFF" opacity="1.000000" stroke="none" 
	d="
M309.422729,336.403625 
	C310.225586,336.075409 310.768677,335.890900 311.206024,336.032623 
	C312.784088,336.544067 314.326508,337.165344 315.882416,337.745117 
	C314.827148,338.495514 313.862946,339.648285 312.697540,339.912048 
	C310.317383,340.450775 308.306702,339.989655 309.422729,336.403625 
z"/>
<path fill="#FFFFFF" opacity="1.000000" stroke="none" 
	d="
M409.496735,327.204193 
	C414.834747,332.363434 415.284088,334.249084 411.510559,337.789948 
	C410.253296,338.969696 406.991791,340.024078 406.259338,339.359192 
	C404.389618,337.661743 402.116486,334.771149 402.418732,332.712311 
	C402.844757,329.809875 404.917206,326.562012 409.496735,327.204193 
z"/>
<path fill="#FFFFFF" opacity="1.000000" stroke="none" 
	d="
M671.764771,337.563477 
	C668.593750,340.800903 665.673767,340.434143 663.069641,337.504669 
	C660.867676,335.027618 660.954407,332.087280 662.966980,329.685577 
	C664.612000,327.722473 666.719299,325.967163 669.766418,327.924774 
	C673.605713,330.391388 673.681946,333.542145 671.764771,337.563477 
z"/>
<path fill="#FFFFFF" opacity="1.000000" stroke="none" 
	d="
M718.000366,331.243256 
	C717.623779,327.694397 719.529968,327.414825 721.592651,328.311768 
	C724.327087,329.500763 727.247192,331.427338 725.402649,334.829651 
	C724.247437,336.960266 721.506470,338.231140 719.476990,339.887787 
	C718.984680,339.541656 718.492310,339.195496 718.000000,338.849335 
	C718.000000,336.463654 718.000000,334.077972 718.000366,331.243256 
z"/>
<path fill="#FFFFFF" opacity="1.000000" stroke="none" 
	d="
M460.699768,328.020142 
	C464.783600,328.626831 466.894684,330.391785 466.220947,334.486053 
	C465.542938,338.606232 462.793304,339.135986 458.483734,338.759796 
	C459.101959,335.051514 459.687134,331.541382 460.699768,328.020142 
z"/>
<path fill="#F39507" opacity="1.000000" stroke="none" 
	d="
M266.770569,476.835999 
	C264.516235,487.862183 260.709076,491.075439 249.439056,491.489990 
	C249.814621,482.921753 250.188675,474.388031 250.558121,465.959717 
	C260.631317,463.684174 266.195587,467.392395 266.770569,476.835999 
z"/>
<path fill="#F49509" opacity="1.000000" stroke="none" 
	d="
M322.894592,481.856659 
	C323.722595,478.776276 324.478455,476.093414 325.234344,473.410583 
	C325.539276,473.382416 325.844177,473.354248 326.149109,473.326080 
	C328.406921,481.726868 330.664734,490.127625 333.016174,498.876831 
	C328.092560,498.876831 323.534454,498.876831 318.380219,498.876831 
	C319.926636,493.090271 321.374573,487.672241 322.894592,481.856659 
z"/>
<path fill="#F4960A" opacity="1.000000" stroke="none" 
	d="
M687.322998,492.584930 
	C687.938354,494.860016 688.431396,496.743195 689.003784,498.929077 
	C684.171143,498.929077 679.746155,498.929077 674.443298,498.929077 
	C676.707520,490.269440 678.889587,481.924286 681.071655,473.579102 
	C681.458069,473.528412 681.844482,473.477722 682.230957,473.427063 
	C683.887512,479.682373 685.544128,485.937683 687.322998,492.584930 
z"/>
</svg>