<svg width="1280" height="56" xmlns="http://www.w3.org/2000/svg" xmlns:xlink="http://www.w3.org/1999/xlink" xml:space="preserve" overflow="hidden"><defs><clipPath id="clip0"><rect x="0" y="332" width="1280" height="56"/></clipPath></defs><g clip-path="url(#clip0)" transform="matrix(1 0 0 1 0 -332)"><path d="M878.213 372.615C875.433 372.615 872.647 373.494 870.793 371.297 870.327 370.857 869.867 370.418 869.867 369.978 869.867 369.538 869.867 369.099 869.4 368.659 868.933 367.78 868.007 368.22 866.613 368.22 864.3 368.22 863.367 366.901 861.513 366.022 860.12 365.143 858.727 364.703 857.34 364.703 855.48 364.703 854.553 365.582 853.627 366.901 852.7 367.78 852.233 368.659 850.84 368.659 850.38 368.659 849.453 368.659 848.987 368.659 846.667 368.659 844.347 368.659 842.027 368.659 840.173 368.659 838.78 368.22 836.927 368.22 835.067 368.22 833.68 368.22 831.82 367.78 831.36 367.341 830.893 367.341 830.427 367.341 829.5 367.341 829.5 367.341 828.573 366.462 828.107 366.022 827.647 365.143 826.72 365.143 826.253 365.143 824.86 365.143 824.4 365.143 821.153 365.143 817.9 365.582 814.193 365.582 812.8 365.582 812.333 365.582 811.407 366.462 810.48 367.341 810.947 368.22 810.013 369.099 809.087 370.418 805.373 369.978 803.987 369.538 798.88 369.099 793.78 369.099 789.14 369.538 788.673 369.538 788.213 369.978 787.28 369.978 785.893 369.978 784.033 369.099 782.64 369.099 779.86 368.659 776.147 367.341 773.827 369.099 773.367 369.538 773.827 370.418 773.367 370.857 772.9 370.857 771.507 370.857 771.507 370.857 771.047 370.857 770.58 371.297 770.113 371.297 768.727 371.297 767.8 371.736 766.407 371.736 764.087 371.736 761.767 371.736 759.447 371.736 757.593 371.736 755.733 372.176 753.413 372.615 752.487 372.615 751.56 372.615 751.093 373.055 750.167 373.934 750.633 374.813 749.24 375.253 748.773 375.253 747.387 375.253 746.92 375.253 745.993 375.253 744.6 375.253 743.673 374.813 743.207 374.813 743.207 374.374 743.207 374.374 742.747 374.374 742.747 374.374 742.28 374.374 740.427 373.934 739.033 372.176 737.64 371.736 735.787 370.857 733.927 370.857 732.073 370.418 729.753 369.978 727.433 368.659 724.653 368.659 721.4 368.659 718.153 368.22 714.907 367.78 713.98 367.78 713.513 367.78 712.587 367.78 710.733 367.78 709.807 367.78 708.413 366.901 707.487 366.462 706.553 366.462 705.627 366.022 705.167 366.022 705.167 365.582 704.7 365.582L704.24 365.582C704.24 365.582 703.773 365.582 703.773 366.022 702.847 366.462 701.92 366.462 700.987 366.462 700.06 366.462 699.133 366.901 698.667 366.901 698.207 366.901 698.207 367.341 697.74 367.341 697.28 367.341 696.347 367.341 695.887 367.341 694.96 367.341 694.033 367.78 693.567 368.22 691.713 367.341 690.32 367.341 688.927 367.341 688 367.341 687.073 367.341 686.607 367.341 685.68 366.901 684.753 366.462 683.82 366.462 682.433 366.901 681.967 368.22 681.04 369.538 680.573 369.978 681.04 369.978 680.113 370.418 679.187 370.418 678.253 370.418 677.793 370.418 675.473 370.418 673.613 369.978 671.76 369.538 669.44 369.099 666.657 368.659 664.338 368.659 662.018 368.22 659.699 367.78 656.915 367.78 654.595 367.78 652.739 369.538 650.419 369.538 647.636 369.978 643.925 369.538 641.605 368.22 641.141 367.78 640.213 367.341 639.749 367.341 638.821 367.341 638.357 367.341 637.893 367.341 636.037 367.78 633.717 367.341 631.862 367.341 630.47 367.341 629.078 367.341 627.687 367.341 626.759 367.341 625.831 367.341 624.903 367.341 624.439 367.341 624.903 367.341 623.975 366.901 623.047 366.462 622.119 366.022 621.191 366.022 617.479 365.582 614.232 364.703 610.521 364.264 608.665 363.824 607.273 363.824 605.881 363.824 604.953 363.824 603.097 362.945 602.169 363.385 600.778 364.264 601.242 366.022 600.778 366.901 600.314 369.099 598.922 369.099 597.066 368.659 594.747 368.22 592.891 366.901 590.571 367.341 589.179 367.78 587.787 368.659 586.395 368.659 584.54 368.659 583.148 368.22 581.292 368.22 579.901 368.22 578.509 368.22 577.581 367.78 575.725 366.901 574.333 366.022 572.013 366.022 570.621 366.022 569.23 366.022 567.838 366.022 564.59 366.022 562.735 366.022 559.951 367.341 559.023 367.78 558.559 368.22 557.631 368.22 555.775 368.22 553.919 367.341 552.528 366.901 551.6 366.462 550.208 366.901 549.28 366.462 548.352 366.022 547.889 365.582 546.961 365.582 546.033 365.582 545.105 365.582 543.713 365.143 542.785 364.703 542.321 364.264 541.393 363.824 540.929 363.824 539.537 363.824 539.537 363.385 538.145 363.385 537.218 362.945 535.826 362.945 533.506 363.385 531.651 365.143 529.795 366.022 527.475 367.341 526.083 368.22 523.299 368.22 521.444 368.22 520.052 368.22 518.196 368.22 516.34 368.22 514.949 368.22 513.093 367.78 511.237 367.341 509.845 367.78 507.989 367.341 507.061 366.901 506.133 366.022 505.206 365.582 504.278 365.582 503.35 365.582 502.886 365.582 501.958 365.582 500.566 365.582 499.639 365.582 498.711 365.582 497.319 365.582 496.391 365.582 494.999 365.582 494.999 366.022 494.071 366.462 491.751 367.341 488.504 367.341 485.72 367.341 484.328 367.341 483.401 366.901 482.009 366.901 480.617 366.901 479.689 366.901 478.297 366.901 475.977 366.901 473.657 366.901 471.338 366.901 469.946 366.901 468.554 366.901 467.163 367.78 466.235 368.659 465.771 369.538 464.379 369.538 463.451 369.538 462.987 369.538 462.059 369.538 458.347 369.538 454.172 369.099 450.925 369.538 449.997 369.538 449.069 370.418 448.141 370.857 447.213 371.297 445.821 371.297 444.893 371.297 443.965 371.297 442.573 371.736 441.645 371.297 441.181 370.857 440.254 369.538 439.79 369.099 437.47 367.78 435.615 369.538 432.831 369.099 431.439 368.659 431.439 367.78 430.511 367.341 427.727 367.78 427.263 367.341 426.335 367.341 425.407 366.901 424.944 366.462 423.552 366.901 421.696 367.341 420.304 369.099 418.913 370.418 418.449 370.418 417.985 369.978 417.521 369.538 417.057 369.099 416.129 369.099 415.201 369.538 414.273 369.099 414.273 368.22 413.345 367.78 412.881 367.78 411.953 367.78 411.489 367.341 410.561 366.901 409.17 366.901 408.242 366.462 406.85 366.462 405.458 366.462 404.066 366.462 403.603 366.462 402.211 366.462 401.747 366.462 401.283 366.462 401.283 365.582 400.819 365.143 400.355 364.264 398.499 363.824 397.571 363.385 395.715 362.066 392.932 362.505 390.612 362.066 390.148 362.066 390.148 361.626 389.684 361.626 388.756 361.626 387.365 362.066 386.437 361.626L385.973 361.626C385.045 360.747 384.581 359.868 384.117 358.989 383.189 357.67 382.261 358.11 380.405 358.549 377.621 359.429 374.838 360.747 372.982 362.505 372.982 362.945 372.054 363.824 371.127 364.264 370.663 364.264 370.663 364.264 370.199 363.824 369.735 363.385 369.271 362.505 368.807 362.066 367.415 361.187 365.559 361.626 364.167 362.066 362.311 362.505 360.92 362.945 359.528 363.385 357.672 363.824 355.816 363.385 354.425 363.385 353.033 363.385 352.569 362.945 351.177 362.505 347.929 361.626 344.218 362.066 340.97 362.505 338.651 362.945 337.259 362.945 335.403 362.945 334.475 362.945 332.619 362.505 331.691 362.945 331.227 363.385 331.227 363.824 330.763 364.264 330.299 365.143 329.835 365.143 328.908 365.582 327.516 366.462 326.124 366.901 324.732 367.341 323.341 367.78 321.485 367.341 319.629 367.341 317.309 366.901 314.525 367.341 312.206 367.341 310.814 367.341 309.886 367.341 308.494 367.78 307.567 368.22 306.639 368.22 305.711 368.659 303.391 369.099 301.535 368.659 299.215 368.659 297.823 368.659 295.968 368.659 294.576 368.659 293.184 368.22 292.256 367.78 290.865 367.78 287.617 367.341 283.905 365.143 280.194 366.462 279.266 366.901 278.802 367.341 278.338 367.341 277.874 367.341 276.946 367.341 276.482 367.341 274.627 367.341 273.235 367.78 271.843 368.659 269.987 369.538 268.595 369.978 267.203 371.297 266.739 371.736 265.811 371.736 263.956 371.736 262.564 371.736 261.636 371.736 260.244 372.176 259.317 372.615 258.853 372.615 258.389 372.615 256.533 372.615 254.213 372.176 252.357 372.176 249.573 372.176 248.182 370.857 245.862 369.538 244.934 369.099 244.006 369.099 242.615 368.659 242.151 368.659 241.687 367.78 241.223 367.78 239.831 367.341 237.975 367.78 237.047 367.78 232.871 367.78 228.696 368.22 224.521 367.78 222.665 367.78 221.273 366.462 219.417 366.022 215.242 365.582 211.531 364.264 207.355 363.824 204.107 363.385 200.859 363.385 197.612 365.143 196.684 365.582 196.22 366.462 195.293 366.901 193.437 367.341 190.653 367.341 188.797 367.341 184.158 368.22 179.519 369.099 174.879 369.099 173.487 369.099 171.631 369.099 170.239 367.78 168.848 367.341 168.848 366.462 166.992 366.022 163.744 365.582 157.713 366.462 155.393 368.659 154.001 369.978 153.537 371.297 152.61 372.615 152.146 373.055 152.61 373.055 151.682 373.055 151.218 373.494 148.898 373.055 147.97 373.055 147.043 373.055 145.187 373.055 144.259 373.494 142.867 374.374 141.011 376.132 139.155 375.692 137.299 375.253 135.908 373.934 134.052 373.934 131.732 373.934 130.341 373.494 128.021 372.615 126.165 372.176 123.845 371.736 121.989 371.736 119.206 371.736 116.886 371.736 114.103 371.736 108.071 371.736 102.504 373.494 96.4727 373.494 95.0807 373.494 93.6893 373.934 92.2973 373.934 89.5133 373.934 86.266 373.494 83.482 373.934 81.1627 374.374 78.8427 375.692 76.9873 376.571 76.0593 377.011 74.6673 377.89 73.7393 377.89 73.2753 377.89 72.8113 377.89 72.348 377.89 71.42 378.33 70.956 378.769 70.028 379.209 69.1 379.648 67.708 380.088 66.7807 380.088 63.0689 380.088 59.3573 380.967 55.6458 380.967 51.9343 380.967 53.3261 384.923 49.6145 384.923 48.2227 384.923 46.8309 384.923 45.4391 384.923 44.5112 384.923 44.0473 385.363 43.1194 385.363 42.6554 385.363 42.1915 385.363 41.7275 385.363 40.7997 385.363 40.7997 385.802 39.8718 385.802 38.4799 385.802 37.5521 385.802 36.1603 385.802 35.2323 385.802 34.7684 386.242 34.3045 386.681 32.9127 387.121 31.5208 382.286 30.129 382.286 28.7371 382.286 27.3453 382.286 25.9535 382.286 25.0256 382.286 23.6338 378.33 22.7059 377.89 21.3141 377.011 19.4583 373.055 18.0665 373.055 16.6747 373.055 15.7468 373.055 14.3549 373.055 13.4271 373.055 12.4992 372.615 11.5713 373.494 9.2516 375.692 10.1795 377.011 6.93187 376.132 6.46795 376.132 5.54006 375.253 4.61217 375.253 3.22035 374.813 2.29247 374.374 0.90064 374.374 0.436697 374.374-4.66667 369.538-4.66667 369.538L-4.66667 338.769C-4.20273 338.769-2.8109 341.846-2.34695 341.846-0.955127 342.286 0.436696 343.604 1.82852 344.044 2.75641 344.923 3.68429 345.363 5.07611 344.923 7.8598 344.483 8.32373 344.044 11.5713 344.923 12.0353 344.923 12.9631 345.363 13.4271 345.802 14.8189 345.802 16.2107 346.681 18.0665 347.121 20.3862 347.56 19.9223 347.121 21.3141 346.681 23.1699 345.802 25.4896 347.121 27.3453 347.121 28.2732 347.121 30.129 347.56 31.0569 347.121 31.9847 347.121 32.4487 346.242 32.9127 346.242 33.8405 345.802 35.2323 346.242 36.6242 346.242 38.4799 345.802 40.7997 344.923 42.6554 345.363 44.5112 345.363 46.8309 345.802 48.6867 346.681 49.1506 347.121 49.6145 347.56 50.5425 347.56 51.0064 348 51.9343 348 52.3982 348 53.3261 348.44 53.7901 348.44 54.7179 348.44 55.6458 348.44 57.5016 348.879 57.9655 348 58.4295 347.56 58.4295 346.242 59.3573 345.802 60.7491 344.923 62.6049 345.363 63.9967 345.363 67.708 344.923 71.42 344.923 75.1313 343.604 76.0593 343.165 78.8427 340.967 80.2347 341.407 80.6987 341.407 81.1627 341.846 81.1627 342.286 82.5547 342.725 83.482 342.725 84.874 342.725 87.194 342.725 89.5133 343.165 92.2973 343.604 94.1527 343.604 96.4727 344.044 98.3287 343.604 99.72 343.165 100.184 342.286 101.112 341.407 102.04 340.527 102.04 340.088 103.432 339.648 104.36 339.648 105.287 339.648 106.679 339.648 107.607 339.648 108.999 339.209 109.927 339.209 110.855 339.209 111.783 338.769 112.711 339.209 113.175 339.648 113.639 340.088 113.639 340.527 114.103 341.407 114.103 341.846 115.031 341.846 115.958 341.846 117.35 341.407 118.278 341.407 119.206 341.407 120.134 341.407 120.598 341.407 121.525 341.407 121.525 341.846 122.453 341.407 122.917 341.407 123.381 340.967 124.309 340.967 125.701 340.527 126.629 340.088 127.557 339.648 128.949 339.209 129.877 339.209 131.732 339.209 134.052 339.209 136.372 339.209 138.227 339.209 140.083 339.209 141.939 338.769 143.331 338.769 143.795 338.769 144.259 339.209 144.723 339.209 145.187 339.209 145.651 338.769 146.115 338.33 147.507 337.89 147.97 337.451 148.434 336.571 148.434 336.132 148.434 335.692 148.898 335.692 149.826 335.692 149.826 336.571 150.754 337.011 152.146 337.89 151.682 338.33 153.073 338.33 154.001 338.33 154.929 338.769 155.857 338.769 157.713 339.209 159.569 339.648 161.425 340.088 162.817 340.527 163.744 340.967 164.672 341.846 166.064 342.286 167.456 341.407 168.384 340.967 169.775 340.527 171.167 340.088 173.023 340.088 176.735 339.648 181.374 339.209 184.622 340.967 186.477 341.846 186.941 343.165 188.797 342.725 191.581 342.286 193.437 340.527 196.22 340.527 197.612 340.527 199.004 340.527 200.396 340.527 201.323 340.527 203.179 340.088 204.107 340.527 205.499 340.967 205.499 342.725 207.355 343.165 207.819 343.165 208.283 343.165 208.747 343.165 209.211 342.725 209.675 342.286 210.603 341.846 211.994 340.527 214.778 339.648 216.634 339.648 217.561 339.648 218.489 339.209 219.417 339.209 220.809 339.209 221.737 339.209 223.129 339.209 223.593 339.209 224.057 339.209 224.521 338.769L224.985 338.33C225.913 337.89 227.305 337.89 228.232 338.33 228.232 339.648 229.624 340.527 230.552 340.967 231.016 341.407 231.016 341.407 231.944 341.407 233.335 341.407 234.727 341.407 236.119 340.967 237.511 340.527 238.439 339.648 239.367 339.209 241.687 337.89 241.687 335.692 243.543 333.934 244.006 333.494 244.934 334.374 245.398 335.253 246.326 337.011 248.646 337.451 250.501 338.33 252.821 340.967 255.141 340.088 257.461 340.967 259.78 341.407 262.1 342.286 264.884 342.286 265.811 342.286 266.739 342.286 268.131 342.286 269.059 342.286 269.523 341.846 269.987 341.846 270.451 341.846 271.379 341.846 271.843 341.846 271.843 341.407 271.843 340.967 271.843 340.967 271.843 340.527 272.307 340.088 272.307 339.648 272.771 339.209 272.771 338.769 272.771 338.33 272.771 337.89 273.235 338.33 273.235 337.451 273.699 337.011 274.163 337.011 275.091 337.011 276.018 337.011 276.482 336.132 277.41 336.132 279.73 336.132 281.585 338.769 283.441 340.088 284.833 340.967 285.761 341.846 286.689 342.725 288.081 344.044 288.545 343.604 289.009 341.846 289.473 340.527 289.937 339.209 290.865 337.89 291.329 337.451 290.865 336.132 291.793 336.132 292.72 336.132 293.184 339.209 294.112 339.648 295.04 340.088 296.432 339.648 297.359 339.648 299.215 339.648 300.143 339.209 301.999 338.769 303.391 338.769 304.783 338.33 306.175 337.89 306.639 337.89 307.567 337.451 307.567 337.451 308.03 337.011 308.494 336.571 308.494 336.132 308.958 335.692 309.886 334.813 309.886 333.934 310.814 333.494 310.814 332.615 311.278 332.176 312.67 331.297 315.453 333.934 316.381 335.253 317.309 336.132 317.773 336.132 318.701 336.571 321.949 337.451 325.66 337.89 329.371 337.89 330.763 337.89 331.227 338.33 332.155 337.451L332.155 337.011C332.155 337.011 332.619 337.011 333.083 337.011 334.475 337.011 335.867 336.571 337.259 336.132 338.187 335.692 339.115 334.374 340.506 334.374 341.434 333.934 342.362 334.813 343.29 335.253 344.682 335.253 346.537 335.253 347.929 335.253 349.321 335.253 350.713 335.692 352.105 335.692 354.425 336.132 356.744 336.571 359.064 336.571 361.383 336.571 363.239 337.011 365.095 337.451 366.023 337.451 367.415 337.89 368.807 337.451 369.735 337.451 369.271 337.89 369.271 338.33 369.271 338.769 369.735 340.088 370.663 339.209 370.663 339.209 370.663 339.209 370.663 338.769 371.591 340.088 372.518 340.527 374.374 340.527 376.23 340.527 377.158 340.088 378.085 338.769 379.013 337.89 379.941 336.571 381.333 336.132 382.261 335.692 383.653 336.132 384.581 336.132 385.973 336.132 387.365 336.571 388.756 337.451 389.22 337.89 390.148 337.89 390.612 337.89 392.004 337.89 392.004 337.011 391.54 335.692 391.54 334.813 392.004 334.374 393.396 334.374 395.715 334.813 397.571 337.011 399.427 338.33 400.819 339.209 402.211 339.648 403.603 339.648 404.53 339.648 405.922 339.648 407.314 339.648 409.17 340.088 409.17 342.286 410.097 343.604 411.489 345.802 414.273 342.286 417.057 342.286 417.985 342.286 419.377 346.242 420.304 345.802 422.624 345.802 424.48 344.923 424.48 342.286 424.48 340.527 423.552 338.33 424.944 337.011 425.871 336.132 428.191 338.33 429.583 338.769 430.975 339.648 431.439 340.967 432.831 341.846 434.223 343.165 434.687 343.165 436.078 343.604 437.47 344.044 438.862 345.363 439.79 346.242 440.718 347.121 442.109 344.044 443.501 344.483 444.429 344.923 445.357 345.363 446.285 345.363 448.141 346.242 449.069 349.319 449.997 348 449.997 346.681 450.925 345.363 451.389 344.483 451.853 343.604 451.853 342.286 452.316 341.407 452.78 340.527 452.316 340.967 453.244 340.967L453.708 340.967C454.636 340.967 455.564 340.967 456.956 341.407 457.883 341.407 458.347 341.407 458.811 341.846 459.275 342.286 459.275 342.725 459.739 342.725 460.203 343.165 460.667 343.165 461.131 343.165 464.379 344.044 469.018 341.407 471.338 343.604 472.266 344.483 470.41 346.681 471.338 347.56 474.121 349.319 477.369 345.802 480.617 345.802 482.473 345.802 483.865 345.802 485.72 345.363 486.648 344.923 487.576 344.923 488.04 344.923 488.968 344.483 490.359 344.044 491.287 343.604 491.751 343.604 492.679 343.165 492.679 343.165 492.679 343.165 492.679 342.725 492.679 342.286 493.143 341.407 494.535 343.165 494.999 343.604 495.463 344.044 495.463 344.044 495.927 344.483 497.319 345.802 499.175 345.802 500.566 345.802 501.494 345.802 503.35 345.802 503.814 347.121 504.278 347.56 505.206 347.121 506.133 347.121 507.525 347.121 509.381 347.121 510.773 346.681 513.093 346.681 515.413 346.681 517.732 346.681 519.124 346.681 522.371 346.681 523.299 345.363 523.763 344.483 523.763 344.483 524.691 344.044 525.619 343.604 526.083 343.604 527.475 343.604 528.403 343.604 529.795 344.044 531.187 343.604 532.115 343.604 532.578 343.165 533.506 342.725 534.898 342.286 535.826 341.407 537.218 340.967 538.145 340.967 538.145 340.967 538.609 341.407 540.001 341.846 540.929 341.846 542.321 342.286 543.713 342.725 544.641 344.044 546.033 344.923 546.497 345.363 547.889 345.363 548.816 345.363 550.672 345.802 552.064 345.802 553.919 346.681 555.775 347.56 558.095 348 559.951 348 560.415 348 560.879 348 561.343 348 562.735 347.56 563.663 346.242 564.59 345.802 565.054 345.363 565.518 345.363 565.518 344.483 565.518 344.044 565.518 343.604 565.518 342.725 565.982 342.725 566.446 342.725 566.91 342.725 568.766 342.725 570.157 342.725 572.013 342.725 572.477 342.725 574.333 342.286 574.797 342.725 575.261 342.725 574.797 343.165 575.261 343.604 575.261 344.044 575.725 344.483 576.189 344.923 577.581 345.802 578.973 345.363 579.901 344.923 580.828 344.483 581.756 344.044 583.148 344.044 584.076 344.044 584.54 343.604 585.467 344.044 586.395 344.044 587.323 344.483 588.715 344.483 589.643 344.483 590.107 344.923 591.035 344.923 591.499 344.923 591.499 344.483 591.499 344.483 591.963 344.483 592.427 344.483 592.891 344.483 593.819 344.044 593.355 343.165 593.355 342.725 593.355 341.846 593.355 342.286 593.819 341.846 593.819 341.407 594.283 340.967 594.283 340.527 594.747 340.088 595.211 339.209 595.675 338.769 597.994 337.89 600.314 339.209 602.633 339.648 603.561 340.088 604.025 340.088 604.953 340.967 605.417 341.407 606.345 341.846 606.809 342.286 607.737 343.165 607.737 343.604 609.129 344.044 610.057 344.044 610.521 344.044 611.449 344.483 611.913 344.483 612.84 344.923 613.304 344.483 614.232 344.483 614.696 343.604 615.624 343.604 617.016 343.165 618.407 343.604 619.799 343.165 620.263 343.165 620.263 342.725 620.727 342.725 622.119 342.286 623.047 342.725 623.975 343.165 625.831 343.604 628.151 343.165 630.006 343.165 630.934 343.165 632.326 343.165 633.254 343.165 634.181 343.165 635.109 343.165 636.037 342.286 636.501 341.846 636.965 341.407 637.893 341.407 638.821 341.407 638.821 341.846 639.285 342.286 639.749 342.725 640.213 342.725 641.141 343.165 642.069 343.604 642.997 343.604 644.388 343.604 645.316 343.604 646.708 343.604 647.636 343.165 648.1 342.725 648.1 342.725 649.028 342.286 649.955 341.846 649.491 342.286 650.419 341.846 651.347 341.407 650.419 341.407 651.347 341.407 651.811 341.407 652.739 341.407 653.203 341.407 654.131 341.407 655.987 340.967 656.915 341.407 657.843 341.846 658.771 342.286 659.235 342.286 660.626 342.725 662.018 342.286 663.41 342.286 665.266 341.846 666.657 341.846 668.513 341.407 669.907 340.967 671.3 340.527 673.153 340.527 674.547 340.088 677.327 339.209 677.793 340.527 678.72 341.846 680.113 341.846 681.04 342.286 682.893 342.725 683.827 341.407 685.68 340.967 687.073 340.527 688.46 340.967 689.853 340.967 692.64 340.967 695.42 340.527 697.74 340.967 698.667 340.967 699.133 341.407 699.6 341.846 700.987 343.165 702.38 344.044 704.7 344.044 705.167 344.044 705.627 344.044 706.553 344.044 707.487 344.044 708.413 343.604 709.807 343.165 710.733 342.725 711.66 342.725 712.127 342.286 712.127 342.286 712.127 341.846 712.587 341.846 713.513 341.407 713.98 341.846 714.447 341.407L714.447 340.967C714.447 340.967 715.373 340.527 715.833 340.527 718.153 340.088 720.473 340.967 722.333 339.648 722.793 339.209 723.26 339.209 724.187 338.769 725.113 338.769 726.04 338.769 726.967 339.209 727.9 339.648 729.287 339.209 730.22 339.648 730.22 341.846 733.467 340.967 734.86 340.967 736.713 340.967 738.107 339.209 739.493 339.648 739.96 339.648 740.887 340.088 741.813 340.527 742.28 340.967 742.747 340.967 743.207 341.407 744.6 342.286 745.527 342.286 747.387 342.286 748.773 342.286 750.167 342.286 751.56 342.286 752.953 342.286 754.34 342.286 755.273 342.286 756.66 342.286 757.593 341.846 758.98 341.407 759.907 341.407 760.373 341.407 761.3 340.967 762.227 340.527 763.16 340.527 764.087 340.527 765.013 340.527 766.407 339.648 767.8 339.209 769.187 338.769 770.58 339.209 772.433 338.769 773.827 338.769 774.293 338.769 775.22 339.209 778.007 340.088 780.787 339.648 783.573 340.527 784.5 340.967 784.96 341.846 785.893 342.286 787.28 343.165 789.14 343.165 790.993 343.165 792.847 343.604 794.707 343.604 797.027 343.604 799.807 343.604 801.667 341.846 804.447 340.967 805.84 340.527 807.693 340.967 809.087 340.967 810.48 340.967 811.407 340.088 812.8 339.648 813.26 339.209 814.193 338.769 814.653 338.33 816.513 337.451 818.833 337.89 820.687 337.451 823.007 337.011 826.253 335.692 828.573 337.011 829.967 337.89 830.893 340.088 832.747 340.527 835.067 341.407 837.387 341.846 839.247 343.165 841.1 344.044 841.567 344.044 843.42 343.604 845.273 343.165 848.06 344.044 849.913 343.604 850.38 343.604 850.84 343.165 851.307 342.725 851.773 342.286 852.233 342.286 852.7 341.846 853.627 340.967 852.7 340.527 854.093 340.527 855.02 340.527 855.48 340.527 856.407 340.527 857.8 340.527 859.66 340.088 861.047 340.088 861.047 340.088 861.98 340.088 862.44 340.088 862.907 340.527 862.907 340.967 863.367 341.407 863.833 341.846 864.76 341.846 865.687 341.846 867.08 341.846 868.473 341.846 870.327 341.846 871.72 341.846 873.573 342.286 874.507 342.286 875.433 342.286 875.893 341.407 876.82 341.846 877.287 342.286 877.287 342.286 877.753 342.725 878.213 342.725 879.14 342.725 880.073 342.286 881.927 341.846 883.78 342.286 885.64 342.286 888.42 342.725 890.74 342.286 893.527 341.846 895.38 341.407 897.24 341.407 898.627 340.967 899.093 340.527 900.02 340.088 900.487 340.527 901.413 340.967 901.873 341.407 902.34 342.286 902.807 342.725 902.34 343.604 902.807 344.044 903.267 344.483 903.733 344.483 904.193 344.923 904.66 344.923 905.127 344.923 905.587 344.923 906.053 344.923 906.053 345.363 906.513 345.363 907.447 345.363 907.907 344.483 908.373 344.044 909.76 343.604 911.153 343.165 912.547 343.165 913.94 342.725 915.333 341.846 916.72 341.407 917.187 340.967 919.967 340.527 920.9 340.527 920.433 341.407 920.9 343.604 921.36 344.044 921.827 344.483 921.827 344.044 922.287 344.483 922.753 344.483 922.753 344.923 923.22 344.923 924.607 345.363 926.467 344.923 928.32 345.363 930.18 345.802 932.033 346.242 934.353 346.242 935.747 346.242 936.673 345.802 938.067 345.363 939.453 344.923 940.387 344.044 940.847 342.725 940.847 342.286 941.313 341.407 941.773 341.407 942.24 341.407 942.7 341.407 943.167 341.846 944.56 342.286 945.487 341.846 946.413 342.286 946.88 342.725 947.807 343.165 948.273 343.604 949.2 344.044 949.66 344.923 950.593 345.363 951.98 346.242 953.373 346.242 954.767 346.242 956.62 346.242 957.547 344.483 959.407 344.483 960.333 344.483 960.8 344.923 961.727 344.044 962.187 343.604 961.727 342.725 962.187 342.725 962.653 342.286 963.58 342.286 964.507 342.286 966.367 341.846 968.22 341.407 970.54 341.407 972.393 341.407 975.18 341.846 977.033 340.527 977.5 340.088 977.5 339.648 977.96 339.209 978.427 339.209 979.82 339.209 980.747 339.209 982.14 339.209 983.067 339.209 984.46 339.648 985.847 340.088 986.78 341.407 988.167 341.407 989.1 341.407 990.027 341.407 990.487 341.407 991.42 341.407 992.347 341.846 992.807 342.286 993.273 342.725 994.2 343.165 994.667 343.604L995.127 344.044C996.053 344.483 997.447 343.165 998.373 344.044 999.307 345.363 1001.16 344.923 1001.63 345.802 1001.63 345.802 1001.63 346.242 1002.09 346.242 1002.55 346.242 1003.01 346.242 1003.01 346.242 1004.87 346.242 1006.26 346.242 1008.12 346.242 1010.9 345.802 1013.22 344.044 1016.47 344.044 1017.86 344.044 1018.79 344.044 1020.18 344.044 1020.65 344.044 1021.11 344.483 1021.57 344.483 1022.5 344.483 1022.97 344.923 1023.89 344.923 1024.82 344.923 1026.21 344.923 1027.14 345.363 1028.07 345.802 1028.07 346.681 1028.99 347.121 1029.46 347.121 1030.39 347.56 1030.39 347.56 1031.31 347.56 1032.25 347.56 1033.17 347.56 1034.57 347.56 1035.95 347.56 1037.35 347.56 1037.81 347.56 1037.81 347.56 1038.27 347.56 1039.2 347.121 1038.74 345.363 1039.67 345.802 1040.13 345.802 1039.2 347.121 1039.2 347.56 1039.67 348.44 1041.06 348 1041.99 348 1042.45 348 1042.91 347.56 1043.38 347.56 1044.31 347.56 1044.31 348.44 1044.77 348.879 1045.23 349.319 1045.7 349.319 1046.63 349.319 1047.09 349.319 1047.55 349.319 1048.02 349.319 1048.48 349.758 1048.95 351.077 1049.87 350.637 1050.8 350.198 1051.27 349.319 1051.73 348.879 1052.19 348.44 1052.66 348.44 1053.12 348.44 1053.59 348.44 1054.51 348.879 1054.98 348.44 1055.44 348 1055.44 347.56 1055.91 347.56 1056.83 347.56 1057.3 348.44 1057.76 348.879 1058.69 349.319 1058.23 347.121 1058.23 346.681 1058.23 346.242 1058.23 345.802 1058.69 345.802 1059.61 344.923 1061.01 344.483 1062.4 344.483 1064.72 344.483 1067.51 344.483 1070.29 344.483 1071.21 344.483 1071.21 344.483 1072.14 344.923 1073.07 345.363 1073.53 345.802 1074.46 346.242 1075.85 347.121 1077.25 347.121 1079.1 347.121 1080.03 347.121 1080.96 347.121 1081.89 347.121 1083.74 347.121 1084.67 346.242 1086.53 345.802 1087.45 345.363 1087.92 345.363 1088.85 345.363 1089.77 345.363 1089.77 344.923 1090.7 344.483 1092.09 344.044 1093.95 344.483 1095.81 344.044 1096.27 344.044 1097.66 343.604 1098.13 343.604 1099.51 344.044 1100.45 346.681 1100.91 347.56 1101.37 348.44 1101.83 348.879 1103.23 349.319 1103.69 349.319 1103.69 349.319 1104.15 349.319 1104.15 349.319 1104.62 349.319 1104.62 349.758 1106.01 350.198 1107.4 349.758 1108.79 350.198 1110.65 350.637 1112.97 350.637 1114.83 350.198 1116.68 349.758 1118.54 348.879 1119.93 348.44 1120.86 348 1122.25 347.56 1123.17 347.121 1123.64 346.681 1124.11 346.681 1124.57 346.242 1125.96 345.802 1127.35 346.242 1128.75 346.681 1129.21 346.681 1131.07 346.681 1131.99 347.121 1132.92 348.44 1134.77 349.319 1136.17 349.758 1138.02 350.198 1140.34 351.077 1142.2 351.077 1143.59 350.637 1145.45 349.758 1146.37 349.758 1147.3 349.758 1148.69 351.077 1149.16 351.516 1149.62 351.516 1149.62 351.956 1150.09 351.956 1150.55 352.396 1151.01 352.396 1151.48 352.835 1152.41 353.275 1152.87 353.714 1153.8 353.275 1155.19 352.835 1155.65 351.956 1156.58 351.077 1157.51 350.198 1158.43 350.198 1159.37 349.319 1160.75 348.44 1161.22 348.44 1162.61 348.44 1165.86 348 1168.64 347.121 1171.89 346.681 1172.82 346.681 1174.21 347.121 1175.6 346.681 1176.07 346.681 1176.07 345.802 1176.99 345.802 1178.39 345.802 1179.31 346.242 1180.71 346.242 1182.1 346.242 1183.95 346.242 1185.35 345.802 1186.73 345.802 1188.13 345.802 1189.52 346.242 1190.91 346.681 1191.84 347.121 1193.23 347.121 1194.16 347.56 1193.69 347.56 1194.63 347.121 1199.26 344.483 1205.29 344.923 1210.4 344.044 1213.18 343.604 1215.5 342.725 1217.82 342.725 1219.21 342.725 1220.61 342.286 1221.99 341.846 1223.85 340.967 1225.25 341.846 1227.1 342.286 1228.95 342.725 1229.88 344.483 1231.74 344.923 1233.13 345.363 1234.52 344.923 1235.91 344.923 1238.23 344.923 1241.48 345.363 1243.34 344.044 1244.27 343.604 1244.73 342.725 1246.12 342.725 1247.05 342.725 1247.98 342.725 1248.91 342.725 1250.3 342.725 1252.61 343.165 1254.01 342.725 1256.33 341.846 1258.65 342.286 1261.43 342.286 1262.36 342.286 1263.75 342.286 1264.68 342.286 1266.07 342.286 1267.46 342.725 1268.85 342.725 1269.78 342.725 1270.71 342.286 1271.64 342.286 1273.96 342.286 1276.28 342.286 1278.6 342.286 1279.06 342.286 1279.99 342.286 1280.45 342.286 1282.31 342.725 1284.63 343.165 1286.02 344.044 1287.87 344.923 1289.27 346.242 1291.13 347.121 1291.59 347.121 1291.59 346.681 1291.59 346.242 1292.05 345.363 1292.51 344.923 1293.44 344.044 1294.37 343.165 1295.76 340.967 1297.15 340.527 1297.62 340.527 1298.55 340.527 1299.47 340.527 1301.79 340.088 1303.19 339.209 1305.51 338.33 1306.43 337.89 1306.9 337.89 1307.83 337.89 1308.29 337.89 1308.75 337.451 1308.75 337.451 1309.68 337.011 1309.68 337.451 1310.15 338.33 1311.07 339.648 1312.47 340.527 1313.86 341.407 1314.32 341.846 1315.25 341.846 1315.71 342.286 1316.64 342.725 1317.57 343.165 1318.49 343.165 1318.96 343.165 1319.43 343.604 1320.35 343.604 1321.28 344.483 1321.75 345.363 1323.13 345.363 1324.07 345.363 1325.45 345.363 1325.92 344.923 1326.85 344.483 1326.85 343.604 1327.31 342.725 1327.77 341.846 1329.17 342.286 1330.09 342.286 1331.02 342.286 1332.41 341.846 1333.34 342.286 1334.73 342.725 1335.2 344.044 1336.59 344.923 1338.45 346.242 1341.23 346.681 1343.09 346.681 1345.41 346.681 1347.73 346.242 1349.58 344.483 1350.51 343.604 1351.43 344.044 1352.83 344.483 1354.69 344.923 1356.07 346.242 1357.01 347.56 1358.39 349.758 1360.71 349.319 1362.57 350.637 1363.5 351.516 1363.96 351.516 1365.35 350.637 1366.28 350.198 1366.28 349.758 1367.21 349.319 1367.67 348.879 1368.14 348 1368.6 348 1369.53 348 1369.99 348.879 1370.92 348.44 1371.39 348 1370.46 347.121 1370.92 346.681 1371.85 345.802 1372.78 347.121 1373.71 347.56 1375.56 348.44 1376.95 348.44 1378.81 348.44 1380.67 348.44 1382.05 348.44 1383.91 348.44 1385.31 348.44 1386.69 348.44 1388.09 348.879 1389.01 349.319 1389.48 350.637 1390.87 350.637 1391.33 350.637 1392.26 350.637 1392.73 350.637 1393.65 350.198 1394.12 349.319 1395.05 348.879 1397.83 347.121 1401.08 349.319 1403.4 348 1403.86 348 1403.86 347.56 1403.86 347.121 1404.33 347.121 1404.79 347.121 1405.25 347.121 1406.18 347.121 1406.18 347.121 1407.11 346.681 1407.57 346.242 1408.04 345.802 1408.5 345.363 1412.67 344.044 1415.46 349.758 1419.17 348 1420.56 347.56 1421.49 347.121 1422.88 346.681 1423.81 346.242 1424.74 345.802 1425.67 345.363 1426.59 345.363 1426.59 345.363 1427.52 344.923 1428.45 344.483 1429.38 344.483 1430.31 344.483 1431.23 344.483 1432.16 344.923 1433.09 344.923 1433.55 344.923 1434.02 344.923 1434.48 345.363 1434.48 345.363 1434.95 345.802 1435.41 346.242 1435.87 346.242 1435.87 346.242 1436.34 346.242 1436.8 346.242 1437.27 346.681 1437.73 346.681 1438.19 346.681 1439.12 346.681 1439.59 347.121 1440.05 347.121 1440.51 347.56 1441.44 347.56 1443.29 348 1445.15 347.56 1447.01 348.44 1447.47 348.879 1448.4 348.879 1448.87 348.879 1449.79 349.319 1450.72 349.319 1451.65 349.758 1453.5 349.758 1455.36 349.758 1456.75 349.758 1457.68 349.758 1458.14 349.758 1459.07 349.758 1460 349.319 1460.46 348.44 1461.39 348 1462.32 347.56 1464.64 348 1465.57 348 1466.49 348 1466.96 348 1467.89 348.44 1469.28 348.879 1469.74 349.758 1471.13 348.879 1471.6 348.44 1472.06 348 1472.53 348 1472.99 347.56 1473.92 347.56 1474.38 347.121 1475.77 346.242 1475.77 345.802 1477.17 346.681 1478.09 347.121 1479.02 347.56 1479.95 348 1479.95 348 1481.34 348.879 1481.81 348.879 1482.27 348.879 1483.19 348.879 1483.66 348.879 1485.51 348.44 1486.44 345.363 1488.76 346.242 1490.62 346.681 1492.47 347.121 1494.33 347.121 1495.72 347.121 1495.72 346.681 1496.19 345.363 1496.19 344.923 1496.65 344.044 1497.11 343.604 1497.58 343.165 1498.51 343.165 1499.43 343.165 1500.83 343.165 1502.22 343.165 1503.61 343.165 1505 343.165 1505 343.165 1505.93 342.725 1508.25 341.407 1510.11 341.407 1512.43 342.725 1514.75 343.604 1517.06 342.725 1518.45 340.967L1518.92 340.088C1519.85 339.648 1520.31 340.088 1521.24 340.967L1521.7 341.407 1522.17 341.407C1522.63 341.407 1522.63 341.846 1522.63 342.286 1523.56 343.165 1525.41 343.604 1526.81 343.604 1529.59 343.604 1532.37 341.407 1535.16 340.527 1535.62 340.527 1536.09 340.527 1536.55 340.088 1537.01 340.088 1537.01 339.648 1537.48 339.209 1538.41 338.769 1539.33 339.648 1540.26 339.648 1541.19 339.648 1542.58 339.648 1543.51 339.648 1544.9 339.648 1545.37 338.769 1546.75 338.769 1547.69 338.769 1548.15 339.209 1549.07 339.648 1549.54 340.088 1549.54 340.527 1550 340.527 1550.93 340.967 1552.32 340.967 1553.71 340.967 1556.03 340.967 1560.21 340.967 1562.07 338.769 1562.53 337.89 1562.99 337.451 1564.39 337.451 1564.85 337.451 1566.24 337.89 1566.71 337.011 1567.17 336.571 1566.24 335.692 1566.71 335.253 1568.1 333.934 1569.95 335.692 1571.35 336.571 1572.73 337.451 1574.59 338.33 1575.99 339.648 1576.91 340.088 1578.77 341.846 1580.16 340.967 1580.63 340.527 1581.55 339.209 1581.55 338.769 1582.01 337.451 1582.01 335.692 1583.41 335.253 1584.33 334.813 1585.26 334.813 1586.19 334.813 1587.58 334.813 1588.97 335.253 1590.37 335.253 1591.29 335.692 1592.69 336.132 1593.61 335.253 1594.08 334.813 1593.61 334.374 1594.08 334.374 1594.54 334.374 1595.01 335.253 1595.47 335.253 1597.33 336.571 1599.65 336.132 1601.5 336.132 1602.89 336.132 1604.75 336.132 1606.14 335.692 1607.53 335.692 1609.39 334.813 1610.78 335.253 1613.56 335.692 1615.88 338.33 1618.67 339.209L1618.67 369.978C1618.2 369.978 1617.74 368.659 1616.81 368.659 1614.95 368.659 1613.1 368.659 1611.25 368.659 1609.85 368.659 1608.46 368.659 1607.07 368.22 1606.61 368.22 1606.14 367.78 1605.67 367.78 1605.21 367.341 1604.29 367.78 1603.82 367.78 1602.43 367.78 1601.04 367.78 1599.65 368.22L1599.18 368.659C1598.72 368.659 1598.25 369.099 1597.79 369.099 1596.86 369.538 1596.86 369.978 1596.4 370.418 1595.93 370.857 1595.47 370.418 1594.54 370.857 1593.61 370.857 1593.15 371.736 1592.22 372.176 1591.29 372.615 1590.37 372.176 1589.44 372.615 1588.51 372.615 1588.97 372.615 1588.51 373.055 1587.58 373.494 1586.19 373.494 1585.26 373.494 1584.33 373.494 1583.41 373.934 1582.94 373.934 1582.48 373.934 1582.01 373.934 1581.55 373.934 1580.16 373.934 1578.77 374.374 1577.37 373.934 1576.45 373.934 1574.59 373.934 1574.13 373.055 1573.2 372.176 1573.67 370.857 1572.73 369.978 1571.35 368.22 1566.71 368.22 1564.85 369.099 1564.39 369.099 1563.92 369.538 1563.46 369.538 1562.53 369.978 1562.53 370.857 1562.53 371.736 1562.07 372.615 1561.6 373.934 1561.14 374.813 1561.14 375.253 1559.75 378.33 1558.35 377.89 1557.89 377.89 1557.89 377.011 1557.43 376.571 1556.5 376.132 1555.11 376.571 1554.18 376.571 1552.79 376.571 1551.39 376.571 1550.47 376.571 1549.07 376.571 1547.69 376.571 1546.29 376.571 1543.51 376.571 1541.19 374.813 1538.87 374.374 1536.09 373.494 1533.3 374.374 1530.52 374.374 1529.13 374.374 1527.27 373.934 1525.88 374.374 1524.02 374.813 1522.63 375.253 1520.77 375.692 1520.31 375.692 1520.31 375.692 1519.38 375.692 1518.45 376.132 1517.53 376.571 1517.06 377.451 1516.13 377.89 1515.67 378.33 1515.21 379.209 1514.75 380.527 1514.75 381.846 1514.28 383.165 1513.35 383.165 1513.35 381.846 1513.35 381.407 1512.89 380.088 1512.43 379.209 1511.03 378.769 1508.25 378.33 1504.54 378.33 1501.29 378.33 1497.58 378.769 1493.87 379.209 1490.15 378.33 1488.3 377.89 1486.44 377.451 1484.59 377.451 1483.19 377.451 1481.34 377.451 1479.95 377.451 1478.55 377.451 1477.17 377.011 1476.7 378.769 1476.7 379.648 1476.7 380.527 1475.77 380.967 1474.85 381.407 1473.45 380.967 1472.06 381.407 1470.21 381.846 1468.81 382.286 1466.96 382.286 1465.57 382.286 1464.17 381.846 1462.78 381.407 1461.39 380.527 1460 380.088 1458.14 380.088 1457.68 380.088 1456.75 380.088 1456.29 380.088 1455.36 380.088 1454.43 379.648 1453.04 379.209 1451.65 379.209 1450.25 379.209 1448.87 379.209 1447.93 379.209 1447.01 379.209 1446.08 379.209 1444.23 379.648 1442.83 380.527 1441.44 380.967 1440.51 381.407 1439.59 381.846 1438.66 381.407 1437.73 380.967 1437.27 380.527 1436.34 379.648 1435.87 379.209 1435.87 378.33 1435.41 377.451 1434.95 377.011 1434.02 376.571 1433.55 376.132 1432.63 375.692 1431.23 375.692 1430.31 375.692 1428.91 375.692 1428.91 375.692 1428.45 374.374 1427.99 373.055 1427.06 373.494 1426.13 373.934 1424.74 374.813 1422.88 375.253 1421.49 375.253 1420.56 375.253 1420.1 375.692 1419.17 375.692 1418.71 375.692 1418.71 375.692 1418.25 375.692 1417.78 375.692 1417.31 376.132 1416.85 376.571 1415.93 376.571 1414.53 376.571 1413.61 376.571 1409.43 376.571 1405.25 376.571 1401.54 379.209 1400.61 379.648 1400.61 379.648 1399.69 380.088L1399.22 380.527C1398.29 380.967 1397.37 381.846 1396.44 382.286 1395.51 382.725 1395.05 382.725 1394.12 382.286 1393.65 382.286 1392.73 381.407 1392.73 381.407 1391.33 380.527 1390.41 379.648 1389.01 379.209 1388.55 378.769 1387.63 379.209 1387.63 378.769 1387.16 378.33 1387.16 377.89 1386.69 377.451 1385.31 376.132 1383.45 376.132 1381.59 376.132 1380.2 376.132 1378.81 375.692 1377.88 376.571 1377.42 377.011 1376.95 377.451 1376.03 377.89 1375.56 378.33 1375.1 378.33 1374.63 378.769 1374.17 379.209 1374.17 379.209 1374.17 379.648 1373.71 380.527 1374.17 380.527 1373.24 380.527 1370.92 381.407 1367.67 379.648 1365.35 378.769 1364.89 378.769 1364.43 378.33 1363.96 378.33 1363.5 378.33 1363.5 377.89 1363.03 377.451 1362.57 377.451 1362.11 377.89 1361.64 378.33 1360.71 379.209 1359.32 380.088 1358.39 380.967 1357 380.527 1356.54 378.769 1355.61 377.89 1354.69 377.011 1353.75 376.571 1352.83 376.571 1351.43 376.571 1351.43 377.011 1350.97 378.33 1350.51 379.648 1350.51 381.407 1349.11 380.967 1346.79 380.967 1345.41 377.451 1343.09 377.451 1341.69 377.451 1340.3 378.33 1338.45 378.33 1337.05 378.33 1335.2 377.89 1334.27 378.769 1333.81 379.209 1333.81 379.648 1333.34 380.088 1332.88 380.527 1331.02 380.088 1330.56 380.088 1329.63 380.088 1328.24 379.648 1327.31 379.648 1326.85 379.648 1326.38 379.648 1325.92 379.648 1324.99 380.527 1325.45 382.286 1325.45 383.604 1323.13 382.725 1321.28 380.527 1318.96 379.209 1317.57 378.33 1316.64 378.33 1315.25 377.89 1314.32 377.451 1314.32 377.451 1313.39 377.451 1312.47 377.451 1311.54 377.89 1310.61 377.89 1308.75 378.33 1306.43 377.89 1304.11 377.89 1302.26 377.89 1300.87 377.011 1299.47 377.011 1298.08 377.011 1296.69 377.451 1295.76 377.011 1294.37 376.571 1293.91 377.011 1292.51 377.451 1291.13 378.33 1289.73 377.89 1287.87 378.33 1286.95 378.33 1286.95 378.769 1286.02 379.648 1285.55 380.088 1284.17 380.527 1283.23 380.527 1282.77 380.527 1282.31 380.527 1281.85 380.527 1280.45 380.088 1279.06 378.769 1278.13 377.89 1277.21 377.011 1275.81 376.571 1274.42 376.132 1273.96 376.132 1273.03 375.692 1272.57 375.692 1272.1 375.692 1272.1 375.692 1272.1 375.692 1271.64 376.132 1271.17 376.571 1271.17 377.011 1270.71 377.451 1269.32 377.011 1268.39 377.011 1264.68 377.011 1261.43 377.011 1257.72 377.011 1255.87 377.011 1254.47 377.011 1253.08 375.692 1252.61 375.253 1252.61 374.813 1251.69 374.374 1251.23 373.934 1251.23 374.374 1250.29 374.374 1248.91 374.374 1247.98 372.615 1246.59 372.615 1245.19 372.615 1244.73 374.374 1243.8 375.253 1242.87 376.132 1242.41 377.011 1241.95 377.89 1240.55 378.33 1239.16 376.132 1238.23 375.253 1237.31 374.374 1236.38 374.374 1234.99 373.934 1233.59 373.494 1232.67 372.176 1231.27 371.736 1230.35 371.297 1229.88 372.176 1228.95 372.176 1228.49 372.176 1227.57 371.736 1227.1 371.736 1225.71 371.297 1225.25 370.857 1223.85 370.857 1222.93 370.857 1221.53 370.857 1220.61 370.418 1219.67 369.978 1219.21 370.418 1218.29 369.978 1217.36 369.978 1215.97 369.099 1215.04 369.099 1213.65 368.659 1212.72 368.22 1211.33 368.22 1210.4 368.659 1209.47 369.099 1208.08 369.538 1206.22 369.978 1204.37 370.857 1202.51 371.297 1201.58 371.736 1200.65 371.297 1199.73 371.297 1198.8 371.297 1199.26 371.736 1198.33 371.736 1196.01 372.176 1193.69 371.736 1191.37 371.736 1188.13 371.736 1185.35 369.099 1182.56 370.418 1182.1 370.857 1183.03 371.736 1182.56 372.176 1181.17 373.494 1180.71 374.813 1179.78 375.692 1178.85 377.011 1179.31 376.571 1177.92 376.132 1176.99 375.692 1176.07 374.813 1175.14 374.813 1173.75 374.813 1174.21 375.692 1172.82 376.132 1169.11 376.571 1165.39 369.099 1162.61 371.736 1161.69 372.615 1163.54 375.253 1163.07 376.571 1162.61 377.89 1160.75 374.374 1159.83 374.813 1158.9 375.253 1159.37 375.692 1158.9 376.132 1158.43 376.571 1157.51 377.011 1156.58 377.011 1155.19 377.011 1153.33 376.571 1151.94 376.571 1150.55 376.571 1149.16 376.571 1147.77 377.011 1146.84 377.451 1145.91 377.451 1144.52 377.89 1143.59 378.33 1142.66 378.769 1142.2 378.769 1141.73 378.769 1141.73 378.769 1141.27 378.769 1140.81 378.769 1140.81 378.769 1140.81 379.209 1140.81 379.648 1137.09 380.088 1136.63 380.088 1135.7 380.088 1134.77 379.648 1134.31 380.527 1133.85 381.407 1133.85 384.484 1132.45 385.363 1131.07 385.802 1128.75 384.484 1127.35 384.044 1126.89 384.044 1125.96 383.604 1125.49 383.604 1124.57 383.165 1123.17 383.604 1121.79 383.604 1119.93 383.604 1118.07 383.604 1116.68 383.604 1115.75 383.604 1115.29 384.044 1114.83 384.044 1113.43 384.044 1111.11 384.484 1110.19 383.165 1109.72 382.725 1109.72 382.286 1109.26 381.846 1108.33 381.407 1107.4 380.967 1106.47 380.527 1105.08 380.088 1104.15 379.648 1102.76 379.209 1101.83 379.209 1100.45 379.209 1099.51 378.769 1098.59 378.769 1097.66 378.769 1096.73 378.769 1095.34 378.769 1094.41 379.209 1093.02 379.209 1091.63 379.209 1090.7 379.209 1089.31 379.209 1088.38 379.209 1087.92 379.209 1087.92 380.088 1087.92 380.527 1088.38 381.407 1087.92 381.846 1087.45 382.286 1085.13 382.725 1084.67 382.725 1083.28 382.725 1081.89 383.165 1080.49 382.286 1079.1 381.407 1077.71 380.527 1076.32 379.648 1075.39 378.769 1074.46 377.451 1072.61 377.011 1070.75 376.571 1068.89 376.571 1067.04 377.89 1066.57 378.33 1066.11 378.769 1065.65 379.209 1065.19 380.088 1064.25 380.527 1063.79 381.407 1062.4 382.725 1062.4 383.604 1062.4 385.363 1062.4 386.242 1062.4 387.121 1061.93 388 1061.01 388 1060.08 387.121 1059.61 386.242 1059.15 385.363 1058.23 384.923 1057.3 384.044 1055.91 382.725 1054.05 381.407 1052.66 380.088 1052.19 379.648 1051.27 378.33 1050.34 378.33 1048.95 378.33 1048.48 379.648 1047.55 380.527 1046.63 381.407 1046.16 380.967 1045.23 380.527 1043.38 380.088 1041.99 380.527 1040.13 380.527 1038.27 380.088 1036.42 378.769 1034.1 378.33 1032.71 378.33 1029.46 378.33 1028.53 379.648 1028.07 380.088 1028.53 380.527 1028.07 380.967 1027.61 381.407 1027.14 381.407 1026.67 381.407 1025.75 381.407 1024.82 381.407 1023.89 381.407 1022.97 381.407 1022.04 380.967 1021.11 380.527 1020.65 380.527 1019.72 380.527 1019.25 380.527 1018.33 380.527 1017.4 380.527 1016.93 380.527 1016.01 380.967 1016.01 381.407 1015.08 381.407 1014.61 381.407 1013.69 381.407 1013.22 380.967 1012.29 380.088 1011.83 379.648 1010.44 378.769 1007.65 377.011 1004.87 375.692 1002.55 373.494 1001.63 372.615 1001.16 372.176 1000.23 371.297 997.913 369.538 994.667 369.099 991.88 369.099 990.027 369.099 988.167 369.538 985.847 369.978 983.993 370.418 982.6 371.297 980.747 371.297 977.96 371.736 974.713 369.978 971.933 369.978 970.54 369.978 969.613 369.978 968.22 369.978 966.827 369.978 966.367 369.978 965.433 369.538 964.973 369.099 964.507 369.099 963.58 368.659 961.727 368.659 959.407 367.78 957.547 368.659 956.62 369.099 956.16 369.099 955.227 369.538 953.84 369.978 952.447 371.297 950.593 371.736 950.127 372.176 949.2 372.176 948.733 372.176 947.34 372.615 945.487 372.176 943.633 372.176 941.313 372.176 938.527 372.176 936.207 373.055 932.96 373.934 931.567 377.011 928.32 377.451 927.393 377.451 926 377.451 925.073 377.011 922.753 376.132 920.433 375.253 917.653 374.813 916.26 374.374 914.867 373.494 913.473 373.055 912.08 372.615 911.153 373.055 910.227 372.176 906.513 370.418 902.34 371.297 898.627 371.297 897.7 371.297 896.773 370.418 896.307 369.538 895.847 369.099 895.847 369.099 895.38 368.659 894.92 368.659 894.92 368.22 894.92 368.22 894.453 367.78 893.987 367.78 893.987 367.78 893.527 367.341 893.06 367.78 892.133 367.78 891.667 367.78 890.74 367.78 890.28 367.78 889.347 367.78 888.887 367.78 887.96 367.78 887.493 367.78 886.567 367.78 886.1 368.22 885.64 368.659 885.64 368.659 885.173 369.099 884.713 369.538 883.78 370.418 883.32 370.418 882.853 370.418 882.393 370.418 881.927 370.418 880.533 370.418 879.14 370.418 877.753 370.418 877.753 370.418 877.287 370.418 876.82 370.418 876.82 370.418 876.36 370.418 876.36 370.857 878.68 372.176 878.68 372.176 878.213 372.615Z" fill="#242C2D"/></g></svg>